#N canvas 527 394 560 436 12;
#X obj 128 21 inlet;
#X obj 176 268 outlet;
#X obj 133 97 spigot;
#X obj 248 35 loadbang;
#X msg 248 59 1;
#X msg 209 144 0;
#X obj 55 128 f;
#X obj 28 66 loadbang;
#X obj 96 70 bng 15 250 50 0 empty empty empty 17 7 0 10 #fcfcfc #000000
#000000;
#X obj 76 165 + 1;
#X obj 59 202 moses;
#X msg 28 90 1;
#N canvas 170 393 478 367 divider 0;
#X obj 254 113 inlet;
#X obj 266 396 outlet;
#X obj 262 189 mod 2;
#X obj 219 267 f;
#X obj 261 243 bng 15 250 50 0 empty empty empty 17 7 0 10 #fcfcfc
#000000 #000000;
#X obj 292 248 bng 15 250 50 0 empty empty empty 17 7 0 10 #fcfcfc
#000000 #000000;
#X obj 261 215 sel 0;
#X obj 335 263 f;
#X obj 219 291 - 2;
#X obj 335 287 - 1;
#X obj 219 320 / 2;
#X obj 335 311 / 2;
#X floatatom 335 335 5 0 0 0 - - - 0;
#X floatatom 219 344 5 0 0 0 - - - 0;
#X obj 260 151 t f f;
#X connect 0 0 14 0;
#X connect 2 0 6 0;
#X connect 3 0 8 0;
#X connect 4 0 3 0;
#X connect 5 0 7 0;
#X connect 6 0 4 0;
#X connect 6 1 5 0;
#X connect 7 0 9 0;
#X connect 8 0 10 0;
#X connect 9 0 11 0;
#X connect 10 0 13 0;
#X connect 11 0 12 0;
#X connect 12 0 1 0;
#X connect 13 0 1 0;
#X connect 14 0 2 0;
#X connect 14 1 7 1;
#X connect 14 1 3 1;
#X restore 119 161 pd divider;
#X floatatom 174 230 5 0 0 0 - - - 0;
#X msg 106 249 1;
#X msg 91 100 0;
#X floatatom 14 174 5 0 0 0 - - - 0;
#X floatatom 263 201 5 0 0 0 - - - 0;
#X obj 219 113 bng 15 250 50 0 empty empty empty 17 7 0 10 #fcfcfc
#000000 #000000;
#X floatatom 177 48 5 0 0 0 - - - 0;
#X obj 198 73 tgl 15 0 empty empty empty 17 7 0 10 #fcfcfc #000000
#000000 0 1;
#X connect 0 0 2 0;
#X connect 0 0 8 0;
#X connect 0 0 19 0;
#X connect 2 0 5 0;
#X connect 2 0 12 0;
#X connect 2 0 13 0;
#X connect 2 0 18 0;
#X connect 3 0 4 0;
#X connect 4 0 20 0;
#X connect 5 0 20 0;
#X connect 6 0 9 0;
#X connect 6 0 10 0;
#X connect 6 0 16 0;
#X connect 7 0 11 0;
#X connect 8 0 6 0;
#X connect 9 0 6 1;
#X connect 10 1 14 0;
#X connect 10 1 15 0;
#X connect 11 0 6 1;
#X connect 12 0 10 1;
#X connect 12 0 17 0;
#X connect 13 0 1 0;
#X connect 14 0 20 0;
#X connect 15 0 6 1;
#X connect 20 0 2 1;
