#N canvas 206 142 340 403 12;
#X obj 101 40 inlet;
#X obj 77 270 outlet;
#X obj 76 122 until;
#X obj 76 177 f;
#X obj 94 205 + 1;
#X msg 94 146 0;
#X obj 193 77 loadbang;
#X obj 60 69 t b b;
#X msg 47 98 100;
#X connect 0 0 7 0;
#X connect 2 0 3 0;
#X connect 3 0 4 0;
#X connect 3 0 1 0;
#X connect 4 0 3 1;
#X connect 5 0 3 1;
#X connect 6 0 5 0;
#X connect 7 0 8 0;
#X connect 7 1 5 0;
#X connect 8 0 2 0;
