#N canvas 46 25 865 847 12;
#X declare -path ..;
#N canvas 0 25 525 384 (subpatch) 0;
#X array data2-\$1 62 float 2;
#X coords 0 1 62 0 112 70 2 0 0;
#X restore 0 39 graph;
#X floatatom 411 -25 5 0 0 0 - - - 0;
#N canvas 382 297 1058 845 audioload 1;
#X obj 74 756 textfile;
#X msg 11 701 rewind;
#X obj -22 599 t b b b b b;
#X obj -34 674 \$1;
#X obj -47 700 COUNTER;
#X obj -13 737 bng 15 250 50 0 empty empty empty 17 7 0 10 #fcfcfc
#000000 #000000;
#X obj 38 451 r flb;
#X obj 73 782 symbol;
#X obj 72 812 pack s f;
#X obj 361 700 \$1;
#X obj 73 890 soundfiler;
#X obj 51 644 t b b;
#X obj -20 409 r audioproc;
#X obj -38 521 sel 1;
#X obj -35 480 f;
#X text 64 407 only load if "audioproc" is toggled;
#X msg 81 700 read POINTERS/INSTRUMENTS-WAV.txt;
#X text 388 865 filename || destination array;
#X text -394 700 Read down the instrument list to the argument #;
#X text 221 1042 arrayname bounds x-range-from y-range-from x-range-to
y-range-to;
#X obj 35 933 t b f;
#X obj 31 989 pack f f;
#X obj 30 961 \$1;
#N canvas 58 25 1382 802 audio-display-create 0;
#X obj -224 1015 tabread audio\$1;
#X obj -225 641 inlet;
#X obj -225 788 until;
#X obj -226 844 f;
#X obj -208 887 + 1;
#X obj -122 1219 f;
#X obj -121 1185 +;
#X obj -135 1261 f;
#X obj -265 1196 t b b b;
#X obj -43 1396 f;
#X obj -19 1418 + 1;
#X msg -24 1321 0;
#X obj -23 1543 pack f f;
#X obj -23 1514 \$1;
#X text -104 1016 Read audio array;
#X text -240 1262 sum of values;
#X text -231 1654 write to display array;
#X obj -225 1043 pow 2;
#X obj -134 1311 sqrt;
#X obj -103 1459 mod 2;
#X obj -132 1582 f;
#X obj -103 1483 sel 0;
#X obj -172 1516 bng 15 250 50 0 empty empty empty 17 7 0 10 #fcfcfc
#000000 #000000;
#X obj -170 1546 f;
#X obj -192 1581 * -1;
#X obj -131 1543 bng 15 250 50 0 empty empty empty 17 7 0 10 #fcfcfc
#000000 #000000;
#X obj -134 1339 pow 0.5;
#X obj -24 1297 r ad-reset\$1;
#X obj -246 965 t f f f;
#X obj -80 1432 t f f f;
#X obj -212 1631 tabwrite audio-disp\$1;
#X msg -22 1641 \; audio-disp\$1 resize \$2;
#X msg 14 1598 \; audio-disp\$1 bounds 0 1 \$2 -1;
#X text -547 1170 Every 1024 calculate the average value;
#X text -227 595 translates the audio waveform into an rms (1024 samples)
representation. however the bug is that it stops at 6.34 minutes;
#X text -348 1535 switch polarity every other sample to create a display
that looks polar, f 19;
#X text 153 1649 reconnect to pack when bug is fixed. this resizes
at the end of the process;
#X obj -225 738 t f b f, f 19;
#X obj -44 1129 r 10bitreset\$1;
#X obj -360 1336 s 10bitreset\$1;
#X msg -52 1160 0;
#X obj -116 819 s ad-reset\$1;
#X obj -134 1364 t b f;
#X obj -22 1479 r 10bitreset\$1;
#X obj -142 842 s 10bitreset\$1;
#X text -135 697 1.67772e+07 / 1024;
#X obj -238 917 t f f;
#X msg -186 818 0;
#X msg -226 696 999999;
#X obj -266 1138 mod 4096;
#X obj -266 1168 sel 4095;
#X obj -134 1287 / 4096;
#X connect 0 0 17 0;
#X connect 1 0 48 0;
#X connect 2 0 3 0;
#X connect 3 0 46 0;
#X connect 4 0 3 1;
#X connect 5 0 6 1;
#X connect 5 0 7 1;
#X connect 6 0 5 0;
#X connect 7 0 51 0;
#X connect 8 0 39 0;
#X connect 8 1 7 0;
#X connect 9 0 10 0;
#X connect 9 0 29 0;
#X connect 10 0 9 1;
#X connect 11 0 9 1;
#X connect 12 0 32 0;
#X connect 12 0 31 0;
#X connect 13 0 12 0;
#X connect 17 0 6 0;
#X connect 18 0 26 0;
#X connect 19 0 21 0;
#X connect 20 0 30 0;
#X connect 21 0 22 0;
#X connect 21 1 25 0;
#X connect 22 0 23 0;
#X connect 23 0 24 0;
#X connect 24 0 30 0;
#X connect 25 0 20 0;
#X connect 26 0 42 0;
#X connect 27 0 11 0;
#X connect 28 0 49 0;
#X connect 28 1 0 0;
#X connect 29 0 19 0;
#X connect 29 1 30 1;
#X connect 29 2 12 1;
#X connect 37 0 2 0;
#X connect 37 1 47 0;
#X connect 37 1 41 0;
#X connect 37 1 44 0;
#X connect 38 0 40 0;
#X connect 40 0 7 1;
#X connect 40 0 5 1;
#X connect 40 0 6 1;
#X connect 42 0 9 0;
#X connect 42 1 20 1;
#X connect 42 1 23 1;
#X connect 43 0 13 0;
#X connect 46 0 4 0;
#X connect 46 1 28 0;
#X connect 47 0 3 1;
#X connect 48 0 37 0;
#X connect 49 0 50 0;
#X connect 50 0 8 0;
#X connect 51 0 18 0;
#X restore -202 995 pd audio-display-create;
#X msg 30 1039 \; audio\$1 bounds 0 -1 \$2 1;
#X msg 73 866 read -resize AUDIO_IMPORT/CELLO.wav audio1;
#X msg 73 842 set read -resize AUDIO_IMPORT/\$1 audio\$2;
#X obj 237 798 s audio-module-name\$1;
#N canvas 0 22 450 278 (subpatch) 0;
#X array audio\$1 3.36609e+07 float 2;
#X coords 0 -1 3.36609e+07 1 112 70 1 0 0;
#X restore 393 309 graph;
#X obj -89 543 bng 15 250 50 0 empty empty empty 17 7 0 10 #fcfcfc
#000000 #000000;
#X connect 0 0 7 0;
#X connect 1 0 0 0;
#X connect 2 1 25 0;
#X connect 2 2 3 0;
#X connect 2 3 1 0;
#X connect 2 4 11 0;
#X connect 3 0 4 0;
#X connect 4 0 5 0;
#X connect 5 0 0 0;
#X connect 6 0 14 0;
#X connect 7 0 8 0;
#X connect 7 0 27 0;
#X connect 8 0 26 0;
#X connect 9 0 8 1;
#X connect 10 0 20 0;
#X connect 10 0 23 0;
#X connect 11 0 16 0;
#X connect 11 1 9 0;
#X connect 12 0 14 0;
#X connect 13 0 2 0;
#X connect 14 0 13 0;
#X connect 16 0 0 0;
#X connect 20 0 22 0;
#X connect 20 1 21 1;
#X connect 21 0 24 0;
#X connect 22 0 21 0;
#X connect 25 0 10 0;
#X connect 26 0 25 0;
#X connect 29 0 2 0;
#X restore 283 -32 pd audioload;
#N canvas 43 56 549 807 audioplayer 0;
#X obj 301 900 tabplay~;
#X msg 274 844 set audio1;
#X obj 286 760 t b f;
#X msg 287 815 set set audio\$1;
#X obj 284 720 \$1;
#X obj 285 684 loadbang;
#X obj 266 684 bng 15 250 50 0 empty empty empty 17 7 0 10 #fcfcfc
#000000 #000000;
#X obj 360 684 r flb;
#X obj 112 715 r play-pause;
#X obj 21 715 r xportreset;
#X obj 144 785 sel 1;
#X obj 142 853 bng 15 250 50 0 empty empty empty 17 7 0 10 #fcfcfc
#000000 #000000;
#X msg 175 849 stop;
#X obj 39 792 t b b;
#X obj 39 862 spigot;
#X obj 77 835 tgl 15 0 empty empty empty 17 7 0 10 #fcfcfc #000000
#000000 0 1;
#X text -5 688 connect to transport controls;
#X text 265 620 play the audio file;
#X obj 302 935 outlet~;
#X text 291 647 note: audio loaded in "audioload";
#X connect 0 0 18 0;
#X connect 1 0 0 0;
#X connect 2 0 1 0;
#X connect 2 1 3 0;
#X connect 3 0 1 0;
#X connect 4 0 2 0;
#X connect 5 0 4 0;
#X connect 6 0 4 0;
#X connect 7 0 4 0;
#X connect 8 0 10 0;
#X connect 8 0 15 0;
#X connect 9 0 13 0;
#X connect 10 0 11 0;
#X connect 10 1 12 0;
#X connect 11 0 0 0;
#X connect 12 0 0 0;
#X connect 13 0 14 0;
#X connect 13 1 12 0;
#X connect 14 0 0 0;
#X connect 15 0 14 1;
#X restore 283 5 pd audioplayer;
#N canvas 317 136 1123 736 audioprocessing 0;
#X obj 274 185 inlet~;
#X obj 274 262 outlet~;
#X obj 562 -101 inlet;
#X floatatom 562 -73 5 0 0 0 - - - 0;
#X obj 460 45 random;
#X obj 461 -35 until;
#X msg 461 -61 256;
#X obj 461 225 tabwrite gain\$1;
#X obj 664 120 f;
#X obj 665 150 + 1;
#X msg 683 81 0;
#X obj 532 101 sel 0;
#X obj 460 76 / 2000;
#X obj 461 174 *;
#X msg 533 129 1;
#X msg 572 129 -1;
#X obj 461 198 + 0.5;
#N canvas 0 62 621 705 fft 0;
#X obj 91 213 *~;
#X obj 132 215 line~;
#X msg 148 188 0 100;
#X text 186 163 on;
#X text 187 187 off;
#X text 175 210 envelope;
#X text 175 221 generator;
#X obj 96 251 hip~ 5;
#X obj 234 140 loadbang;
#X obj 95 -221 *~;
#X obj 95 -167 rfft~;
#X obj 94 -32 *~;
#X obj 136 -32 *~;
#X obj 157 -160 *~;
#X obj 96 121 *~;
#X obj 157 -102 /~ 768;
#X obj 158 -134 *~;
#X obj 95 14 rifft~;
#X obj 117 96 tabreceive~ hanning;
#X text 192 -148 amplification of;
#X text 199 -130 array values;
#X text 220 -100 Normalization;
#X obj 156 -188 tabreceive~ gain\$1;
#X msg 132 163 1 100;
#X obj 96 320 outlet~;
#X obj 92 -292 inlet~;
#X obj 336 -270 block~ 512 4;
#X obj 116 -245 tabreceive~ hanning;
#X connect 0 0 7 0;
#X connect 1 0 0 1;
#X connect 2 0 1 0;
#X connect 7 0 24 0;
#X connect 8 0 23 0;
#X connect 9 0 10 0;
#X connect 10 0 11 0;
#X connect 10 1 12 0;
#X connect 11 0 17 0;
#X connect 12 0 17 1;
#X connect 13 0 16 0;
#X connect 13 0 16 1;
#X connect 14 0 0 0;
#X connect 15 0 11 1;
#X connect 15 0 12 1;
#X connect 16 0 15 0;
#X connect 17 0 14 0;
#X connect 18 0 14 1;
#X connect 22 0 13 0;
#X connect 22 0 13 1;
#X connect 23 0 1 0;
#X connect 25 0 9 0;
#X connect 27 0 9 1;
#X restore 274 225 pd fft;
#X obj 461 -169 sel 1;
#X obj 461 -113 spigot;
#X obj 467 -210 t f f;
#X text 179 -291 Spectral Filter;
#X text 574 225 256 individual gains > per FFT bin;
#X text 544 155 Polar #;
#X text 542 173 Filter band gain can be (+) or (-);
#X floatatom 311 -183 5 0 0 0 - - - 0;
#X obj 434 -263 r audioproc;
#X obj 311 -263 r audio-location;
#X obj 461 -137 bng 15 250 50 0 empty empty empty 17 7 0 10 #fcfcfc
#000000 #000000;
#X obj 461 -9 t b b b b;
#X text 511 -211 Only allow Toglle '1' to pass;
#X text 607 -102 Audio data value;
#X obj 532 77 random 2;
#X text 263 80 Make this configurable?;
#X text 619 -39 Make this configurable?;
#X text 742 -120 Conceptually the amount of fishing;
#X text 747 -100 introduces an instability to the ocean;
#X text 751 -82 this is why the random range increases;
#X text 758 -63 based on the fishing #;
#X text 248 102 All this does is change the;
#X text 250 121 scaling of the EQ variation;
#X text 332 226 << gain used here;
#X obj 461 -87 t b b;
#X text 248 -155 loc. of data2 array;
#X obj 704 -160 r data2-filter-amt;
#X obj 562 -40 *;
#X floatatom 698 -122 5 0 0 0 - - - 0;
#X connect 0 0 17 0;
#X connect 2 0 3 0;
#X connect 3 0 45 0;
#X connect 4 0 12 0;
#X connect 5 0 29 0;
#X connect 6 0 5 0;
#X connect 8 0 7 1;
#X connect 8 0 9 0;
#X connect 9 0 8 1;
#X connect 10 0 8 1;
#X connect 11 0 14 0;
#X connect 11 1 15 0;
#X connect 12 0 13 0;
#X connect 13 0 16 0;
#X connect 14 0 13 1;
#X connect 15 0 13 1;
#X connect 16 0 7 0;
#X connect 17 0 1 0;
#X connect 18 0 28 0;
#X connect 19 0 42 0;
#X connect 20 0 18 0;
#X connect 20 1 19 1;
#X connect 26 0 20 0;
#X connect 27 0 28 0;
#X connect 27 0 25 0;
#X connect 28 0 19 0;
#X connect 29 0 4 0;
#X connect 29 1 32 0;
#X connect 29 2 8 0;
#X connect 32 0 11 0;
#X connect 42 0 6 0;
#X connect 42 1 10 0;
#X connect 44 0 45 1;
#X connect 44 0 46 0;
#X connect 45 0 4 1;
#X restore 283 27 pd audioprocessing;
#N canvas 0 25 855 816 audioprocessing2 0;
#X obj 340 422 inlet~;
#X obj 340 483 outlet~;
#N canvas 1060 76 369 796 fft-analysis 0;
#X obj 15 164 *~;
#X obj 14 198 rfft~;
#X obj 19 674 *~;
#X obj 20 592 rifft~;
#X obj 19 702 outlet~;
#X obj 37 649 tabreceive~ hanning;
#X obj 14 99 inlet~;
#X obj 14 32 block~ 512 4;
#X obj 20 621 /~ 786;
#X text 203 144 windowing;
#X obj 20 394 -~;
#X obj 58 369 wrap~;
#X obj 19 442 *~ 512;
#X obj 20 471 /~ 44.1;
#X text 215 230 fft-Analysis is;
#X text 191 253 writte to the;
#X text 201 275 buffers;
#X text 164 322 delay array uses buffer;
#X text 165 344 to determine reading;
#X text 167 365 position;
#X text 65 396 only integers \, jump to bin no.;
#X text 88 441 every bin is 512 samples in size;
#X text 86 470 conversion to milliseconds;
#X text 174 513 reading buffers;
#X text 79 592 resynthesis;
#X text 84 621 normalization;
#X text 205 647 final windowing;
#X obj 36 140 tabreceive~ hanning;
#X obj 49 228 delwrite~ ar2-\$1 10000;
#X obj 14 256 delwrite~ ar1-\$1 10000;
#X obj 21 318 tabreceive~ delay\$1;
#X obj 20 514 vd~ ar1-\$1;
#X obj 102 514 vd~ ar2-\$1;
#X connect 0 0 1 0;
#X connect 1 0 29 0;
#X connect 1 1 28 0;
#X connect 2 0 4 0;
#X connect 3 0 8 0;
#X connect 5 0 2 1;
#X connect 6 0 0 0;
#X connect 8 0 2 0;
#X connect 10 0 12 0;
#X connect 11 0 10 1;
#X connect 12 0 13 0;
#X connect 13 0 31 0;
#X connect 13 0 32 0;
#X connect 27 0 0 1;
#X connect 30 0 10 0;
#X connect 30 0 11 0;
#X connect 31 0 3 0;
#X connect 32 0 3 1;
#X restore 340 454 pd fft-analysis;
#X obj 499 109 inlet;
#X floatatom 463 219 5 0 0 0 - - - 0;
#X obj 492 394 random;
#X obj 463 302 until;
#X msg 463 276 256;
#X obj 603 381 f;
#X obj 623 417 + 1;
#X msg 628 348 0;
#X obj 463 249 t b b;
#X obj 463 328 t b b b;
#X obj 491 453 tabwrite delay\$1;
#X obj 463 194 line;
#X msg 463 170 \$1 500;
#X obj 499 142 t f f;
#X text 450 454 <<<<<;
#X obj 531 368 *;
#X obj 625 226 r data2-delay-amt;
#X connect 0 0 2 0;
#X connect 2 0 1 0;
#X connect 3 0 16 0;
#X connect 4 0 11 0;
#X connect 5 0 13 0;
#X connect 6 0 12 0;
#X connect 7 0 6 0;
#X connect 8 0 9 0;
#X connect 8 0 13 1;
#X connect 9 0 8 1;
#X connect 10 0 8 1;
#X connect 11 0 7 0;
#X connect 11 1 10 0;
#X connect 12 0 5 0;
#X connect 12 2 8 0;
#X connect 14 0 4 0;
#X connect 15 0 14 0;
#X connect 16 0 15 0;
#X connect 16 1 18 0;
#X connect 18 0 5 1;
#X connect 19 0 18 1;
#X restore 283 49 pd audioprocessing2;
#N canvas 64 43 525 441 (subpatch) 0;
#X array gain\$1 256 float 5;
#A 0 0.461 0.4885 0.501 0.5255 0.5375 0.5185 0.4995 0.4755 0.483 0.4565
0.503 0.5195 0.4785 0.4565 0.5075 0.463 0.5275 0.491 0.5395 0.483 0.5095
0.54 0.517 0.54 0.506 0.475 0.4845 0.5325 0.508 0.528 0.498 0.4625
0.475 0.489 0.488 0.4905 0.483 0.4585 0.5135 0.5405 0.5065 0.52 0.4575
0.4785 0.492 0.4835 0.523 0.4985 0.509 0.5415 0.4685 0.526 0.533 0.467
0.5335 0.489 0.53 0.478 0.4875 0.5215 0.4715 0.5305 0.515 0.514 0.473
0.519 0.517 0.475 0.488 0.4955 0.512 0.505 0.473 0.495 0.5095 0.4955
0.515 0.4715 0.5355 0.509 0.482 0.518 0.458 0.4645 0.48 0.514 0.4595
0.487 0.4855 0.512 0.511 0.4885 0.476 0.538 0.465 0.467 0.465 0.494
0.531 0.478 0.5175 0.4865 0.484 0.4945 0.536 0.5225 0.482 0.481 0.4945
0.478 0.5325 0.4735 0.5225 0.5185 0.4805 0.518 0.532 0.4765 0.5355
0.523 0.4735 0.5415 0.4855 0.4705 0.4775 0.514 0.5285 0.4595 0.539
0.529 0.525 0.4615 0.5295 0.501 0.502 0.458 0.465 0.5095 0.5065 0.474
0.4695 0.473 0.5025 0.5205 0.5355 0.4655 0.501 0.4655 0.457 0.515 0.482
0.52 0.5015 0.5255 0.473 0.4845 0.51 0.489 0.504 0.4755 0.5305 0.514
0.4855 0.526 0.5435 0.529 0.4645 0.4735 0.525 0.465 0.499 0.4695 0.491
0.529 0.48 0.497 0.5245 0.514 0.476 0.513 0.473 0.5295 0.53 0.525 0.493
0.49 0.5095 0.4595 0.514 0.537 0.5165 0.5185 0.4575 0.5185 0.486 0.522
0.4875 0.529 0.504 0.497 0.4925 0.535 0.527 0.4615 0.465 0.5155 0.529
0.472 0.5025 0.536 0.463 0.514 0.501 0.52 0.5265 0.483 0.478 0.4575
0.491 0.5435 0.52 0.513 0.47 0.5115 0.478 0.512 0.4615 0.479 0.4815
0.52 0.4835 0.5155 0.472 0.4655 0.523 0.511 0.528 0.5155 0.5165 0.4815
0.475 0.5045 0.467 0.51 0.5275 0.472 0.4945 0.517 0.474 0.4625 0.4705
0.509 0.5125 0.534 0.489 0.464;
#X coords 0 1 255 0 112 40 1 0 0;
#X restore 0 125 graph;
#N canvas 0 25 454 304 (subpatch) 0;
#X array delay\$1 256 float 2;
#X coords 0 215 256 1 112 40 1 0 0;
#X restore 112 125 graph;
#X floatatom 185 2 5 0 0 0 - - - 0;
#X obj 58 -84 loadbang;
#X obj 58 -60 \$1;
#X obj 33 -88 bng 15 250 50 0 empty empty empty 17 7 0 10 #fcfcfc #000000
#000000;
#N canvas 94 25 986 845 audiowrite 0;
#X obj 74 756 textfile;
#X msg 11 701 rewind;
#X obj -22 599 t b b b b b;
#X obj -34 674 \$1;
#X obj -47 700 COUNTER;
#X obj -13 737 bng 15 250 50 0 empty empty empty 17 7 0 10 #fcfcfc
#000000 #000000;
#X obj 73 782 symbol;
#X obj 361 700 \$1;
#X obj 51 644 t b b;
#X obj -10 491 r audiowrite;
#X obj -10 514 sel 1;
#X obj 68 1026 writesf~;
#X obj 50 539 bng 15 250 50 0 empty empty empty 17 7 0 10 #fcfcfc #000000
#000000;
#X obj 439 686 r play-pause;
#X obj 437 741 sel 1;
#X msg 409 821 start;
#X msg 463 821 stop;
#X obj 456 865 spigot;
#X obj 512 837 r audiowrite;
#X obj 131 867 inlet~;
#X msg 70 700 read POINTERS/INSTRUMENTS-WAV-OUT.txt;
#X msg 74 833 open -bytes 3 ../AUDIO_EXPORT/CELLO-FX.wav;
#X msg 74 809 set open -bytes 3 ../AUDIO_EXPORT/\$1;
#X obj 536 741 tgl 15 0 empty empty empty 17 7 0 10 #fcfcfc #000000
#000000 0 1;
#X obj 495 775 spigot;
#X obj 497 618 r xportreset;
#X obj 459 952 s audiowrite-receive;
#X msg 459 922 set 0;
#X obj 459 894 route stop;
#X text 512 868 only let messages pass when write is enabled;
#X text 540 897 if stop comes thru \, uncheck the toggle;
#X connect 0 0 6 0;
#X connect 1 0 0 0;
#X connect 2 1 21 0;
#X connect 2 2 3 0;
#X connect 2 3 1 0;
#X connect 2 4 8 0;
#X connect 3 0 4 0;
#X connect 4 0 5 0;
#X connect 5 0 0 0;
#X connect 6 0 22 0;
#X connect 8 0 20 0;
#X connect 8 1 7 0;
#X connect 9 0 10 0;
#X connect 10 0 2 0;
#X connect 12 0 2 0;
#X connect 13 0 14 0;
#X connect 13 0 23 0;
#X connect 14 0 15 0;
#X connect 14 1 16 0;
#X connect 15 0 17 0;
#X connect 16 0 17 0;
#X connect 17 0 11 0;
#X connect 17 0 28 0;
#X connect 18 0 17 1;
#X connect 19 0 11 0;
#X connect 20 0 0 0;
#X connect 21 0 11 0;
#X connect 22 0 21 0;
#X connect 23 0 24 1;
#X connect 24 0 16 0;
#X connect 25 0 24 0;
#X connect 27 0 26 0;
#X connect 28 0 27 0;
#X restore 328 85 pd audiowrite;
#X text 428 50 Spectral Delay;
#X text 419 27 Spectral Filter;
#N canvas 233 238 716 590 audio-data-lookup-index 0;
#X obj 570 254 loadbang;
#X obj 323 42 r metro-location;
#X obj 448 157 int;
#X obj 491 -160 r audio-rate-factor;
#X obj 443 -181 r audio-rate-sign;
#X obj 475 -54 pack f f;
#X obj 500 -90 f;
#X obj 443 -134 t f b;
#X obj 465 -23 route 0 1;
#X obj 448 133 *;
#X obj 495 9 expr 1/$f1;
#X floatatom 495 33 5 0 0 0 - - - 0;
#X floatatom 466 102 5 0 0 0 - - - 0;
#X obj 448 -86 f;
#X obj 491 -134 t b f;
#X obj 448 325 outlet;
#X msg 570 278 0;
#X text 390 257 Lookup;
#X text 481 155 Floor the #;
#X text 310 20 Note transport loc.;
#X text 536 -22 0= X and 1 = divide;
#X obj 448 186 change;
#X obj 527 215 s audio-location;
#X obj 448 253 tabread data2-\$1;
#X connect 0 0 16 0;
#X connect 1 0 9 0;
#X connect 2 0 21 0;
#X connect 3 0 14 0;
#X connect 4 0 7 0;
#X connect 5 0 8 0;
#X connect 6 0 5 1;
#X connect 7 0 13 0;
#X connect 7 1 6 0;
#X connect 8 0 12 0;
#X connect 8 1 10 0;
#X connect 9 0 2 0;
#X connect 10 0 11 0;
#X connect 11 0 12 0;
#X connect 12 0 9 1;
#X connect 13 0 5 0;
#X connect 14 0 13 0;
#X connect 14 1 6 0;
#X connect 16 0 15 0;
#X connect 21 0 22 0;
#X connect 21 0 23 0;
#X connect 23 0 15 0;
#X restore 411 -80 pd audio-data-lookup-index;
#X symbolatom 53 2 8 0 0 0 - - - 0;
#X obj -135 -78 r audio-module-name\$1;
#X text 114 2 Instance:;
#N canvas 794 144 625 656 data2load 0;
#X obj 281 230 textfile;
#X msg 228 152 rewind;
#X obj 281 270 symbol;
#X obj 282 409 textfile;
#X obj 195 50 t b b b b b;
#X msg 138 280 rewind;
#X msg 282 321 read DATA/CELLO-DATA2.txt;
#X obj 98 201 t b b b b;
#X obj 144 363 t b f;
#X obj 183 125 \$1;
#X obj 170 151 COUNTER;
#X obj 204 188 bng 15 250 50 0 empty empty empty 17 7 0 10 #fcfcfc
#000000 #000000;
#X obj 303 -5 bng 15 250 50 0 empty empty empty 17 7 0 10 #fcfcfc #000000
#000000;
#X obj 307 107 bng 15 250 50 0 empty empty empty 17 7 0 10 #fcfcfc
#000000 #000000;
#X obj 307 107 bng 15 250 50 0 empty empty empty 17 7 0 10 #fcfcfc
#000000 #000000;
#X obj 279 -81 r flb;
#X obj 221 -123 r audioproc;
#X obj 203 -11 sel 1;
#X obj 206 -52 f;
#X text 305 -125 only load if "audioproc" is toggled;
#X msg 283 297 set read DATA/\$1;
#X obj 69 322 ADVANCER-DATA2;
#X obj 217 471 tabwrite data2-\$1;
#X msg 281 152 read POINTERS/INSTRUMENTS-DATA2.txt;
#X connect 0 0 2 0;
#X connect 1 0 0 0;
#X connect 2 0 20 0;
#X connect 3 0 22 0;
#X connect 4 1 7 0;
#X connect 4 2 9 0;
#X connect 4 3 1 0;
#X connect 4 4 23 0;
#X connect 5 0 3 0;
#X connect 6 0 3 0;
#X connect 7 0 21 0;
#X connect 7 1 5 0;
#X connect 7 2 6 0;
#X connect 8 0 3 0;
#X connect 8 1 22 1;
#X connect 9 0 10 0;
#X connect 10 0 11 0;
#X connect 11 0 0 0;
#X connect 12 0 4 0;
#X connect 13 0 23 0;
#X connect 15 0 18 0;
#X connect 16 0 18 0;
#X connect 17 0 4 0;
#X connect 18 0 17 0;
#X connect 20 0 6 0;
#X connect 21 0 8 0;
#X connect 23 0 0 0;
#X restore 283 -58 pd data2load;
#X text 0 2 Instru:;
#X obj 136 -59 declare -path ..;
#X obj 285 222 s~ proc\$1;
#X obj 285 184 *~;
#X obj 307 135 r proc-on\$1;
#X obj 332 167 tgl 15 0 empty empty empty 17 7 0 10 #fcfcfc #000000
#000000 0 1;
#N canvas 690 387 450 278 (subpatch) 0;
#X array audio-disp\$1 243 float 2;
#X coords 0 1 243 -1 112 70 1 0 0;
#X restore 112 39 graph;
#X connect 1 0 4 1;
#X connect 1 0 5 1;
#X connect 3 0 4 0;
#X connect 4 0 5 0;
#X connect 5 0 12 0;
#X connect 5 0 23 0;
#X connect 9 0 10 0;
#X connect 10 0 8 0;
#X connect 11 0 10 0;
#X connect 15 0 1 0;
#X connect 17 0 16 0;
#X connect 23 0 22 0;
#X connect 24 0 23 1;
#X connect 24 0 25 0;
#X coords 0 -1 1 1 225 165 2 0 0;
