#N canvas 208 65 1232 723 12;
#N canvas 0 25 450 278 (subpatch) 0;
#X array auto\$1 721 float 2;
#X coords 0 3000 721 5 600 57 2 0 0;
#X restore 150 13 graph;
#X obj 85 0 tgl 50 0 empty empty Record 8 25 0 10 #fcfcfc #000000 #000000
0 1;
#X obj 135 15 vsl 15 52 5 3000 0 0 empty sliderrange\$2 empty 0 -9
0 10 #fcfcfc #000000 #000000 0 1;
#X obj 366 136 r metro-location;
#X obj 366 270 tabread auto\$1;
#X obj 160 121 t b f;
#X obj 146 178 spigot;
#X obj 75 291 tabwrite auto\$1;
#X obj 405 184 - 1;
#X obj 405 208 abs;
#X obj 366 233 spigot;
#X obj 146 85 r metro-location;
#X msg 137 -79 set \$1;
#X obj 16 -81 loadbang;
#X msg 19 -57 0;
#X floatatom 85 50 5 0 0 0 - - - 0;
#X obj 146 206 t b f;
#X obj 366 294 int;
#X obj 47 251 i;
#X obj 2 2 cnv 15 80 23 empty type-lab\$2 METRO 0 15 0 18 #f8d8fc #404040
0;
#N canvas 648 245 688 556 label 0;
#X obj 49 28 loadbang;
#X obj 116 27 bng 15 250 50 0 empty empty empty 17 7 0 10 #fcfcfc #000000
#000000;
#X obj 24 347 s type-lab\$2;
#X obj 29 113 \$2;
#X obj 242 275 s instru-lab\$3;
#X obj 16 170 route 0 1 2;
#X msg -16 213 METRO;
#X msg 33 214 ZOOM;
#X msg 73 212 MODE;
#X msg 27 313 label \$1;
#X obj 17 267 symbol;
#X msg 241 242 label INS\\\$3;
#X obj 142 93 \$3;
#X obj 142 131 sel 0;
#X msg 132 240 label;
#X obj 138 297 s instru-lab\$3;
#X floatatom 197 131 5 0 0 0 - - - 0;
#X msg -82 246 color 6;
#X msg 73 283 color 9;
#X connect 0 0 3 0;
#X connect 0 0 12 0;
#X connect 1 0 3 0;
#X connect 1 0 12 0;
#X connect 3 0 5 0;
#X connect 5 0 6 0;
#X connect 5 1 7 0;
#X connect 5 2 8 0;
#X connect 6 0 10 0;
#X connect 7 0 10 0;
#X connect 7 0 17 0;
#X connect 8 0 10 0;
#X connect 8 0 18 0;
#X connect 9 0 2 0;
#X connect 10 0 9 0;
#X connect 11 0 4 0;
#X connect 12 0 13 0;
#X connect 12 0 16 0;
#X connect 13 0 14 0;
#X connect 13 1 11 0;
#X connect 14 0 15 0;
#X connect 17 0 2 0;
#X connect 18 0 2 0;
#X restore 772 395 pd label;
#X obj 2 24 cnv 15 80 23 empty instru-lab\$3 empty 0 15 0 18 #e0e0e0
#404040 0;
#X obj 2 46 cnv 15 80 23 empty empty \$1 0 15 0 18 #e0e0e0 #404040
0;
#N canvas 522 42 585 748 auto-router 0;
#X obj 411 487 loadbang;
#X obj 411 522 \$2;
#X obj 326 533 t b f;
#X obj 328 566 f;
#X obj 329 602 pack f f;
#X obj 329 626 route 0 1 2;
#X obj 378 661 s pitch-proc\$3;
#X obj 328 722 s metrospeed;
#X obj 352 694 s avg\$3;
#X obj 296 430 inlet;
#X connect 0 0 1 0;
#X connect 1 0 3 1;
#X connect 2 0 3 0;
#X connect 2 1 4 1;
#X connect 3 0 4 0;
#X connect 4 0 5 0;
#X connect 5 0 7 0;
#X connect 5 1 8 0;
#X connect 5 2 6 0;
#X connect 9 0 2 0;
#X restore 47 396 pd auto-router;
#X obj 137 -147 r autoval\$1;
#X obj 366 333 s autoval\$1;
#X obj 29 184 r autoval\$1;
#N canvas 436 45 832 671 read-write-automation 0;
#X obj 77 70 r savedata;
#X obj 32 161 COUNTER;
#X obj 34 224 tabread auto\$1;
#X obj 199 419 textfile;
#X obj 279 231 \$1;
#X obj 243 282 pack s f;
#X obj 239 143 t b b b;
#X msg 238 233 auto;
#X msg 38 271 add \$1;
#X obj 77 94 t b b b;
#X obj 604 499 textfile;
#X obj 684 311 \$1;
#X obj 648 362 pack s f;
#X obj 644 223 t b b b;
#X msg 643 313 auto;
#X msg 557 283 rewind;
#X obj 445 195 COUNTER;
#X obj 457 306 t b f;
#X obj 475 588 tabwrite auto\$1;
#X obj 519 58 r loaddata;
#X msg 150 323 clear;
#X obj 485 59 bng 15 250 50 0 empty empty empty 17 7 0 10 #fcfcfc #000000
#000000;
#X text 539 36 read from disk;
#X text 106 34 write to disk;
#X obj 389 10 r datacount0;
#X obj 444 143 f;
#X obj 450 239 - 1;
#X obj 32 185 - 1;
#X obj -63 67 r datacount0;
#X obj 36 129 f;
#X obj 515 94 t b b b;
#X obj 389 43 t b f;
#X floatatom 84 187 5 0 0 0 - - - 0;
#X msg 201 362 write ../AUTO/auto0.txt;
#X msg 235 322 set write ../AUTO/\$1\$2.txt;
#X msg 606 442 read ../AUTO/auto0.txt;
#X msg 640 402 set read ../AUTO/\$1\$2.txt;
#X connect 0 0 9 0;
#X connect 1 0 27 0;
#X connect 2 0 8 0;
#X connect 4 0 5 1;
#X connect 5 0 34 0;
#X connect 6 0 33 0;
#X connect 6 1 7 0;
#X connect 6 2 4 0;
#X connect 7 0 5 0;
#X connect 8 0 3 0;
#X connect 9 0 6 0;
#X connect 9 1 29 0;
#X connect 9 2 20 0;
#X connect 10 0 18 0;
#X connect 11 0 12 1;
#X connect 12 0 36 0;
#X connect 13 0 35 0;
#X connect 13 1 14 0;
#X connect 13 2 11 0;
#X connect 14 0 12 0;
#X connect 15 0 10 0;
#X connect 16 0 26 0;
#X connect 17 0 10 0;
#X connect 17 1 18 1;
#X connect 19 0 30 0;
#X connect 20 0 3 0;
#X connect 21 0 30 0;
#X connect 24 0 31 0;
#X connect 25 0 16 0;
#X connect 26 0 17 0;
#X connect 27 0 2 0;
#X connect 28 0 29 1;
#X connect 29 0 1 0;
#X connect 30 0 25 0;
#X connect 30 1 15 0;
#X connect 30 2 13 0;
#X connect 31 0 30 0;
#X connect 31 1 25 1;
#X connect 32 0 2 0;
#X connect 33 0 3 0;
#X connect 34 0 33 0;
#X connect 35 0 10 0;
#X connect 36 0 35 0;
#X restore 774 444 pd read-write-automation;
#N canvas 696 409 450 300 gui-set 0;
#X obj 87 11 inlet;
#X msg 145 122 color 9;
#X obj 107 93 sel 0 1 2;
#X msg 115 152 color 8;
#X msg 67 120 color 0;
#X obj 99 225 outlet;
#X connect 0 0 2 0;
#X connect 1 0 5 0;
#X connect 2 0 4 0;
#X connect 2 1 3 0;
#X connect 2 2 1 0;
#X connect 3 0 5 0;
#X connect 4 0 5 0;
#X restore 197 -77 pd gui-set;
#X text 164 400 Send automation to correct destination;
#X msg 81 -60 set \$1;
#X obj 153 0 hsl 595 13 0 721 0 0 metro-loc-bar-s metro-loc-bar empty
-2 -8 0 10 #fcfcfc #000000 #000000 0 1;
#N canvas 37 121 814 706 array-resize 0;
#X obj 226 130 sel 0 1 2;
#X obj 225 107 \$2;
#X obj 237 176 \$1;
#X obj 259 214 \$1;
#X obj 282 252 \$1;
#X obj 319 -70 r datacount\$3;
#X obj 339 42 t b f;
#X msg 242 411 \; auto\$1 resize \$2;
#X msg 374 329 \; auto\$1 resize \$2;
#X msg 570 310 \; auto\$1 resize \$2;
#X text 208 485 arrayname bounds x-range-from y-range-from x-range-to
y-range-to;
#X text 221 589 Resize = data size;
#X text 225 612 Bounds = display size;
#X obj 474 -89 r sliderrange\$2;
#X floatatom 508 60 5 0 0 0 - - - 0;
#X floatatom 458 60 5 0 0 0 - - - 0;
#X obj 473 -2 unpack s f f;
#X obj 585 232 pack f f f f;
#X obj 386 255 pack f f f f;
#X obj 261 343 pack f f f f;
#X msg 385 286 \; auto\$1 bounds 0 \$3 \$2 \$4;
#X msg 586 263 \; auto\$1 bounds 0 \$3 \$2 \$4;
#X msg 261 371 \; auto\$1 bounds 0 \$3 \$2 \$4;
#X obj 342 2 f;
#X obj 449 -56 t b a;
#X text 99 -69 how many lines in the dataset;
#X text 138 104 Range type;
#X obj 708 129 print p4;
#X obj 720 156 print p3;
#X obj 730 181 print p2;
#X obj 742 208 print 1;
#X connect 0 0 2 0;
#X connect 0 1 3 0;
#X connect 0 2 4 0;
#X connect 1 0 0 0;
#X connect 2 0 17 0;
#X connect 3 0 18 0;
#X connect 4 0 19 0;
#X connect 5 0 23 1;
#X connect 6 0 1 0;
#X connect 6 1 17 1;
#X connect 6 1 18 1;
#X connect 6 1 19 1;
#X connect 13 0 24 0;
#X connect 14 0 18 3;
#X connect 14 0 17 3;
#X connect 14 0 19 3;
#X connect 15 0 18 2;
#X connect 15 0 17 2;
#X connect 15 0 19 2;
#X connect 16 1 14 0;
#X connect 16 2 15 0;
#X connect 17 0 21 0;
#X connect 17 0 9 0;
#X connect 18 0 20 0;
#X connect 18 0 8 0;
#X connect 19 0 22 0;
#X connect 19 0 7 0;
#X connect 23 0 6 0;
#X connect 24 0 23 0;
#X connect 24 1 16 0;
#X restore 773 420 pd array-resize;
#N canvas 63 88 450 300 first-read-auto-type 0;
#X obj 879 35 r play-pause;
#X obj 881 66 sel 1;
#X obj 934 92 loadbang;
#X obj 934 116 \$2;
#X obj 934 156 f;
#X obj 957 217 sel 2;
#X obj 956 300 tabread auto\$1;
#X msg 955 259 0;
#X obj 957 343 s pitch-proc\$3;
#X floatatom 1071 327 5 0 0 0 - - - 0;
#X connect 0 0 1 0;
#X connect 1 0 4 0;
#X connect 2 0 3 0;
#X connect 3 0 4 1;
#X connect 4 0 5 0;
#X connect 5 0 7 0;
#X connect 6 0 8 0;
#X connect 6 0 9 0;
#X connect 7 0 6 0;
#X restore 775 466 pd first-read-auto-type;
#N canvas 444 227 764 561 identify 0;
#X obj 95 60 loadbang;
#X obj 58 105 \$1;
#X obj 99 90 \$2;
#X obj 139 91 \$3;
#X floatatom 130 130 5 0 0 0 - - - 0;
#X floatatom 130 153 5 0 0 0 - - - 0;
#X floatatom 130 176 5 0 0 0 - - - 0;
#X obj 75 62 bng 15 250 50 0 empty empty empty 17 7 0 10 #fcfcfc #000000
#000000;
#X text 177 152 INSTRU #;
#X text 177 175 RANGE TYPE;
#X text 177 129 UNIQUE # / AUTO FILE #;
#X text 71 39 IDENTIFIER TOOL;
#X text 262 149 Range: 0=metro \; 1=zoom \; 2=mode;
#X obj 45 4 tgl 15 0 empty empty empty 17 7 0 10 #fcfcfc #000000 #000000
0 1;
#X text 105 131 1);
#X text 105 150 2);
#X text 105 169 3);
#X text 141 104 IDENTIFICATION FOR THIS AUTO LANE:;
#X connect 0 0 1 0;
#X connect 0 0 2 0;
#X connect 0 0 3 0;
#X connect 1 0 4 0;
#X connect 2 0 5 0;
#X connect 3 0 6 0;
#X connect 7 0 1 0;
#X connect 7 0 2 0;
#X connect 7 0 3 0;
#X coords 0 -1 1 1 300 100 2 100 100;
#X restore 846 8 pd identify;
#X text 417 232 If Record is On \, do not tabread automation;
#X text 199 178 If record is on \, then tabwrite new automation, f
16;
#X text -26 122 Receive new auto from a variety of sources, f 11;
#X text -56 250 Only write when new metro-location is banged, f 14
;
#X connect 1 0 5 0;
#X connect 2 0 18 1;
#X connect 2 0 28 0;
#X connect 2 0 30 0;
#X connect 3 0 10 0;
#X connect 4 0 17 0;
#X connect 5 1 6 1;
#X connect 5 1 8 0;
#X connect 6 0 16 0;
#X connect 8 0 9 0;
#X connect 9 0 10 1;
#X connect 10 0 4 0;
#X connect 11 0 6 0;
#X connect 12 0 2 0;
#X connect 12 0 15 0;
#X connect 13 0 14 0;
#X connect 14 0 1 0;
#X connect 15 0 18 1;
#X connect 16 0 18 0;
#X connect 16 1 7 1;
#X connect 17 0 23 0;
#X connect 17 0 25 0;
#X connect 18 0 7 0;
#X connect 18 0 23 0;
#X connect 24 0 12 0;
#X connect 24 0 28 0;
#X connect 26 0 18 1;
#X connect 28 0 2 0;
#X connect 30 0 15 0;
#X coords 0 -1 1 1 750 70 2 0 0;
