#N canvas 720 181 467 375 12;
#X obj 101 40 inlet;
#X obj 108 288 outlet;
#X obj 76 122 until;
#X obj 76 177 f;
#X obj 76 242 + 1;
#X msg 94 146 0;
#X obj 101 82 t f b;
#X obj 108 255 + 1;
#X obj 76 210 t f f;
#X text 193 68 Receives a #;
#X text 192 112 Outputs the count;
#X text 192 89 Counts from 1 to n;
#X connect 0 0 6 0;
#X connect 2 0 3 0;
#X connect 3 0 8 0;
#X connect 4 0 3 1;
#X connect 5 0 3 1;
#X connect 6 0 2 0;
#X connect 6 1 5 0;
#X connect 7 0 1 0;
#X connect 8 0 4 0;
#X connect 8 1 7 0;
