#N canvas 178 137 767 735 12;
#X declare -path ..;
#N canvas 323 137 803 545 (subpatch) 0;
#X array pitch\$1 721 float 4;
#X coords 0 86.6202 721 0 150 34 2 0 0;
#X restore 100 166 graph;
#N canvas 605 140 648 732 load 0;
#X obj 281 230 textfile;
#X msg 228 152 rewind;
#X obj 281 270 symbol;
#X obj 280 433 textfile;
#X obj 195 50 t b b b b b;
#X msg 171 276 rewind;
#X msg 282 330 read DATA/CELLO.txt;
#X obj 98 201 t b b b b;
#X obj -32 421 t b f;
#X obj 183 125 \$1;
#X obj 170 151 COUNTER;
#X obj 204 188 bng 15 250 50 0 empty empty empty 17 7 0 10 #fcfcfc
#000000 #000000;
#X obj 166 -10 loadbang;
#X obj 250 -7 r flb;
#X obj 303 -5 bng 15 250 50 0 empty empty empty 17 7 0 10 #fcfcfc #000000
#000000;
#X obj 124 578 tabwrite pitch\$1;
#X text 377 -4 Write text values to array;
#N canvas 693 505 442 355 advancer 0;
#X obj 101 40 inlet;
#X obj 77 270 outlet;
#X obj 76 122 until;
#X obj 76 177 f;
#X obj 94 205 + 1;
#X msg 127 124 0;
#X obj 59 70 t b b;
#X msg 47 98 721;
#X obj 0 5 r datacount\$1;
#X msg 0 28 set \$1;
#X connect 0 0 6 0;
#X connect 2 0 3 0;
#X connect 3 0 4 0;
#X connect 3 0 1 0;
#X connect 4 0 3 1;
#X connect 5 0 3 1;
#X connect 6 0 7 0;
#X connect 6 1 5 0;
#X connect 7 0 2 0;
#X connect 8 0 9 0;
#X connect 9 0 7 0;
#X restore -79 382 pd advancer;
#X obj 448 321 s instruname\$1;
#X msg 427 296 set \$1;
#N canvas 719 99 721 647 measure-dataset-dimensions 0;
#X obj 128 -83 inlet;
#X obj 133 126 until;
#X msg 117 92 10000;
#X msg 195 133 0;
#X obj 144 180 f;
#X obj 161 208 + 1;
#X text 122 -101 start;
#X obj 196 252 f;
#X obj 71 279 s datacount\$1, f 14;
#X text -42 278 how many lines;
#X obj 236 -82 inlet;
#X text 233 -104 readfile name;
#X obj 239 18 textfile;
#X obj 128 -58 t b b b b;
#X msg 236 -33 read DATA/CELLO.txt;
#X msg 169 -28 rewind;
#X obj 429 344 \$1;
#X obj 431 315 loadbang;
#X obj 150 385 pack f f;
#X msg 105 443 \; pitch\$2 resize \$1;
#X obj 312 408 pack f f f;
#X obj 320 194 moses 0;
#X floatatom 385 162 5 0 0 0 - - - 0;
#X obj 358 250 f;
#X obj 290 70 t b b;
#X text 383 194 array height;
#X msg 280 443 \; pitch\$3 bounds 0 \$2 \$1 0;
#X text 122 483 array size;
#X text 306 483 array display dimensions;
#X text 334 71 send height first;
#X text -12 91 wacky overly long;
#X connect 0 0 13 0;
#X connect 1 0 4 0;
#X connect 1 0 12 0;
#X connect 2 0 1 0;
#X connect 3 0 4 1;
#X connect 3 0 7 1;
#X connect 3 0 22 0;
#X connect 4 0 5 0;
#X connect 5 0 4 1;
#X connect 5 0 7 1;
#X connect 7 0 18 0;
#X connect 7 0 20 0;
#X connect 7 0 8 0;
#X connect 10 0 14 0;
#X connect 12 0 21 0;
#X connect 12 1 1 1;
#X connect 12 1 24 0;
#X connect 13 0 2 0;
#X connect 13 1 3 0;
#X connect 13 2 15 0;
#X connect 13 3 14 0;
#X connect 14 0 12 0;
#X connect 15 0 12 0;
#X connect 16 0 18 1;
#X connect 16 0 20 2;
#X connect 17 0 16 0;
#X connect 18 0 19 0;
#X connect 20 0 26 0;
#X connect 21 1 22 0;
#X connect 21 1 23 1;
#X connect 22 0 21 1;
#X connect 23 0 20 1;
#X connect 24 0 7 0;
#X connect 24 1 23 0;
#X restore -19 350 pd measure-dataset-dimensions;
#X msg 281 152 read POINTERS/INSTRUMENTS.txt;
#X msg 282 297 set read DATA/\$1;
#X obj 398 77 declare -path ..;
#X connect 0 0 2 0;
#X connect 1 0 0 0;
#X connect 2 0 22 0;
#X connect 2 0 19 0;
#X connect 3 0 15 0;
#X connect 4 1 7 0;
#X connect 4 2 9 0;
#X connect 4 3 1 0;
#X connect 4 4 21 0;
#X connect 5 0 3 0;
#X connect 6 0 3 0;
#X connect 7 0 17 0;
#X connect 7 1 20 0;
#X connect 7 2 5 0;
#X connect 7 3 6 0;
#X connect 8 0 3 0;
#X connect 8 1 15 1;
#X connect 9 0 10 0;
#X connect 10 0 11 0;
#X connect 11 0 0 0;
#X connect 12 0 4 0;
#X connect 13 0 4 0;
#X connect 14 0 4 0;
#X connect 17 0 8 0;
#X connect 19 0 18 0;
#X connect 21 0 0 0;
#X connect 22 0 6 0;
#X connect 22 0 20 1;
#X restore -97 119 pd load;
#N canvas 399 104 1041 768 player 0;
#N canvas 319 31 612 841 average 0;
#X obj 167 113 sel 1;
#X obj 123 202 outlet;
#X obj 125 170 bng 15 250 50 0 empty empty empty 17 7 0 10 #fcfcfc
#000000 #000000;
#X obj 199 145 COUNTER;
#X obj 371 422 f;
#X obj 236 272 +;
#X obj 371 386 +;
#X msg 418 341 0;
#X floatatom 275 295 5 0 0 0 - - - 0;
#X obj 189 274 -;
#X floatatom 111 296 5 0 0 0 - - - 0;
#X obj 391 207 r metro-location;
#X obj 366 268 f;
#X obj 195 196 t b f f;
#X obj 351 31 t b f b b;
#X obj 356 462 f;
#X obj 355 495 /;
#X floatatom 355 523 5 0 0 0 - - - 0;
#X obj 199 169 + 1;
#N canvas 72 232 531 533 divider 0;
#X obj 254 113 inlet;
#X obj 266 396 outlet;
#X obj 262 189 mod 2;
#X obj 219 267 f;
#X obj 261 243 bng 15 250 50 0 empty empty empty 17 7 0 10 #fcfcfc
#000000 #000000;
#X obj 292 248 bng 15 250 50 0 empty empty empty 17 7 0 10 #fcfcfc
#000000 #000000;
#X obj 261 215 sel 0;
#X obj 335 263 f;
#X obj 219 291 - 2;
#X obj 335 287 - 1;
#X obj 219 320 / 2;
#X obj 335 311 / 2;
#X floatatom 335 335 5 0 0 0 - - - 0;
#X floatatom 219 344 5 0 0 0 - - - 0;
#X obj 260 151 t f f;
#X obj 277 367 s avg-cookeds\$1;
#X obj 273 302 - 1;
#X connect 0 0 14 0;
#X connect 2 0 6 0;
#X connect 3 0 8 0;
#X connect 3 0 16 0;
#X connect 4 0 3 0;
#X connect 5 0 7 0;
#X connect 6 0 4 0;
#X connect 6 1 5 0;
#X connect 7 0 9 0;
#X connect 7 0 15 0;
#X connect 8 0 10 0;
#X connect 9 0 11 0;
#X connect 10 0 13 0;
#X connect 11 0 12 0;
#X connect 12 0 1 0;
#X connect 13 0 1 0;
#X connect 14 0 2 0;
#X connect 14 1 7 1;
#X connect 14 1 3 1;
#X connect 16 0 15 0;
#X restore 167 75 pd divider;
#X obj 355 546 outlet;
#X obj 351 -79 inlet;
#X floatatom 257 225 5 0 0 0 - - - 0;
#X obj 351 -48 bng 15 250 50 0 empty empty empty 17 7 0 10 #fcfcfc
#000000 #000000;
#X obj 351 -27 f;
#X obj 392 235 tabread pitch\$1;
#X obj 417 -53 r avg\$1;
#X obj 98 333 tabread pitch\$1;
#X obj 234 326 tabread pitch\$1;
#X obj 426 432 r avg-cookeds\$1;
#X connect 0 0 2 0;
#X connect 0 1 3 0;
#X connect 2 0 1 0;
#X connect 3 0 18 0;
#X connect 4 0 6 1;
#X connect 4 0 15 1;
#X connect 5 0 8 0;
#X connect 5 0 28 0;
#X connect 6 0 4 0;
#X connect 7 0 6 1;
#X connect 7 0 4 1;
#X connect 9 0 10 0;
#X connect 10 0 27 0;
#X connect 11 0 5 1;
#X connect 11 0 9 0;
#X connect 11 0 25 0;
#X connect 12 0 6 0;
#X connect 13 0 9 0;
#X connect 13 1 9 1;
#X connect 13 2 5 0;
#X connect 13 2 22 0;
#X connect 14 0 15 0;
#X connect 14 1 19 0;
#X connect 14 2 12 0;
#X connect 14 3 7 0;
#X connect 15 0 16 0;
#X connect 16 0 17 0;
#X connect 17 0 20 0;
#X connect 18 0 13 0;
#X connect 19 0 0 0;
#X connect 21 0 23 0;
#X connect 23 0 24 0;
#X connect 24 0 14 0;
#X connect 25 0 12 1;
#X connect 26 0 24 1;
#X connect 27 0 6 0;
#X connect 28 0 6 0;
#X connect 29 0 16 1;
#X restore 173 123 pd average;
#X floatatom 200 174 5 0 0 0 - - - 0;
#X obj 303 260 s averagevalue\$1;
#X obj 108 -3 t b f;
#X obj 108 56 pack f f;
#X obj 108 85 route 0 1 2 3;
#X obj 108 -33 r metro-location;
#N canvas 480 25 916 847 avg-page 0;
#X obj 353 -162 inlet;
#X obj 199 145 COUNTER;
#X obj 418 455 f;
#X obj 236 272 +;
#X obj 402 408 +;
#X msg 456 401 0;
#X obj 177 274 -;
#X obj 374 280 f;
#X obj 199 183 t b f f;
#X obj 349 586 f;
#X obj 348 619 /;
#X floatatom 348 647 5 0 0 0 - - - 0;
#N canvas 657 25 783 478 divider 0;
#X obj 254 113 inlet;
#X obj 246 481 outlet;
#X obj 262 189 mod 2;
#X obj 219 267 f;
#X obj 261 243 bng 15 250 50 0 empty empty empty 17 7 0 10 #fcfcfc
#000000 #000000;
#X obj 292 245 bng 15 250 50 0 empty empty empty 17 7 0 10 #fcfcfc
#000000 #000000;
#X obj 261 215 sel 0;
#X obj 335 263 f;
#X obj 219 332 - 2;
#X obj 335 328 - 1;
#X obj 219 361 / 2;
#X obj 335 352 / 2;
#X floatatom 335 376 5 0 0 0 - - - 0;
#X floatatom 219 385 5 0 0 0 - - - 0;
#X obj 260 151 t f f;
#X obj 270 401 s avg-cooked-p\$1;
#X obj 270 344 - 1;
#X text 307 191 is the average odd or even?;
#X text 393 400 only send odd #s;
#X text 298 484 how far to the R & L the averaging will seek from the
data file, f 25;
#X obj 335 291 t f f;
#X obj 219 299 t f f;
#X text 394 418 total # to average;
#X connect 0 0 14 0;
#X connect 2 0 6 0;
#X connect 3 0 21 0;
#X connect 4 0 3 0;
#X connect 5 0 7 0;
#X connect 6 0 4 0;
#X connect 6 1 5 0;
#X connect 7 0 20 0;
#X connect 8 0 10 0;
#X connect 9 0 11 0;
#X connect 10 0 13 0;
#X connect 11 0 12 0;
#X connect 12 0 1 0;
#X connect 13 0 1 0;
#X connect 14 0 2 0;
#X connect 14 1 7 1;
#X connect 14 1 3 1;
#X connect 16 0 15 0;
#X connect 20 0 9 0;
#X connect 20 1 15 0;
#X connect 21 0 8 0;
#X connect 21 1 16 0;
#X restore 199 111 pd divider;
#X obj 348 677 outlet;
#X obj 351 -45 f;
#X obj 351 -19 ACCUM;
#X obj 417 -72 r avg\$1;
#X obj 488 190 tabread pitch\$1;
#X obj 237 301 tabread pitch\$1;
#X obj 118 344 tabread pitch\$1;
#X obj 547 446 r avg-cooked-p\$1;
#X obj 392 22 bng 15 250 50 0 empty empty empty 17 7 0 10 #fcfcfc #000000
#000000;
#X floatatom 450 -36 5 0 0 0 - - - 0;
#X text 273 279 read ahead;
#X text 84 315 read behind;
#X text 397 -17 count how many go by until to bang for new average
, f 27;
#X obj 429 600 f;
#X obj 119 369 moses 1;
#X obj 237 325 moses 1;
#X obj 547 488 f;
#X obj 236 513 s minusone\$1;
#X obj 510 408 r minusone\$1;
#X text 69 398 do not add zeros;
#X text 474 -72 avg value from automation;
#X obj 351 -119 t b f;
#X floatatom 488 151 5 0 0 0 - - - 0;
#X text 603 408 if a zero is discarded;
#X text 672 445 average to divide;
#X floatatom 148 190 5 0 0 0 - - - 0;
#X floatatom 591 489 5 0 0 0 - - - 0;
#X text 398 -162 metro-location;
#X text 420 54 float is the # of values to averate;
#X text 5 83 Divides the average so that it's symmetrical to seeek
forward and backward, f 26;
#X text 1 138 Advances the forward and backward "read head", f 27
;
#X floatatom 434 636 5 0 0 0 - - - 0;
#X obj 361 328 moses 1;
#X obj 350 55 t b b f b;
#X floatatom 430 -123 5 0 0 0 - - - 0;
#X floatatom 287 28 5 0 0 0 - - - 0;
#X text 602 189 adds in current pitch;
#X obj 547 512 +;
#X obj 486 554 +;
#X obj 349 465 t b b b;
#X msg 500 503 -1;
#X floatatom 497 594 5 0 0 0 - - - 0;
#X msg 466 503 0;
#X obj 281 394 +;
#X connect 0 0 34 0;
#X connect 0 0 47 0;
#X connect 1 0 8 0;
#X connect 1 0 38 0;
#X connect 2 0 4 1;
#X connect 2 0 9 1;
#X connect 3 0 18 0;
#X connect 4 0 2 0;
#X connect 5 0 4 1;
#X connect 5 0 2 1;
#X connect 5 0 26 1;
#X connect 6 0 19 0;
#X connect 7 0 45 0;
#X connect 8 1 6 0;
#X connect 8 2 3 0;
#X connect 9 0 10 0;
#X connect 10 0 11 0;
#X connect 11 0 13 0;
#X connect 12 0 1 0;
#X connect 14 0 15 0;
#X connect 15 0 21 0;
#X connect 15 0 46 0;
#X connect 15 0 48 0;
#X connect 16 0 14 1;
#X connect 16 0 22 0;
#X connect 17 0 7 1;
#X connect 18 0 28 0;
#X connect 19 0 27 0;
#X connect 20 0 39 0;
#X connect 20 0 29 0;
#X connect 26 0 44 0;
#X connect 26 0 10 1;
#X connect 27 0 30 0;
#X connect 27 1 56 0;
#X connect 28 0 30 0;
#X connect 28 1 56 0;
#X connect 29 0 50 0;
#X connect 31 0 53 0;
#X connect 34 0 14 0;
#X connect 34 1 35 0;
#X connect 35 0 17 0;
#X connect 35 0 3 1;
#X connect 35 0 6 1;
#X connect 45 0 30 0;
#X connect 45 1 4 0;
#X connect 46 0 52 0;
#X connect 46 1 7 0;
#X connect 46 2 12 0;
#X connect 46 3 5 0;
#X connect 50 0 29 1;
#X connect 50 0 51 1;
#X connect 51 0 54 0;
#X connect 51 0 26 1;
#X connect 52 0 9 0;
#X connect 52 1 26 0;
#X connect 52 2 55 0;
#X connect 53 0 51 0;
#X connect 54 0 51 1;
#X connect 55 0 51 0;
#X connect 56 0 4 0;
#X restore 347 130 pd avg-page;
#X obj 107 26 f;
#X obj -9 144 tabread pitch\$1;
#X obj -110 24 tabread pitch\$1;
#X obj -110 57 s pitch-raw\$1;
#X obj 263 -34 r pitch-proc\$1;
#X obj 118 375 mtof;
#X obj 172 465 osc~;
#X obj 118 272 + 0.499;
#X obj 118 337 int;
#X floatatom 118 247 5 0 0 0 - - - 0;
#X text 365 -32 what playback mode are we?;
#X obj 83 493 bng 15 250 50 0 empty empty empty 17 7 0 10 #fcfcfc #000000
#000000;
#X obj 83 521 s notebang\$1;
#X obj 118 407 moses 10;
#X obj 203 303 bng 15 250 50 0 empty empty empty 17 7 0 10 #fcfcfc
#000000 #000000;
#N canvas 866 153 472 553 midiout 0;
#X obj 91 374 noteout;
#X msg 152 325 127;
#X floatatom 205 376 5 0 0 0 - - - 0;
#X obj 199 342 \$1;
#X text 230 341 Chan;
#X obj 189 128 inlet;
#X obj 307 315 f;
#X obj 281 211 t b b b;
#X obj 322 373 noteout;
#X obj 379 341 \$1;
#X msg 343 312 0;
#X obj 190 175 t f f b;
#X floatatom 128 153 5 0 0 0 - - - 0;
#X obj 93 218 t f b b;
#X connect 1 0 0 1;
#X connect 3 0 0 2;
#X connect 3 0 2 0;
#X connect 5 0 11 0;
#X connect 5 0 12 0;
#X connect 6 0 8 0;
#X connect 7 0 6 0;
#X connect 7 1 10 0;
#X connect 7 2 9 0;
#X connect 9 0 8 2;
#X connect 10 0 8 1;
#X connect 11 0 13 0;
#X connect 11 1 6 1;
#X connect 11 2 7 0;
#X connect 13 0 0 0;
#X connect 13 1 1 0;
#X connect 13 2 3 0;
#X restore 201 384 pd midiout;
#X obj 58 188 moses 1;
#X obj 510 282 r osc-on\$1;
#X obj 194 628 s~ osc\$1;
#X text 212 74 send current metro location to whichver playback mode
is enabled via automation;
#X floatatom 55 25 5 0 0 0 - - - 0;
#X floatatom -1 56 5 0 0 0 - - - 0;
#X obj 408 415 loadbang;
#X msg 408 439 0;
#X floatatom 276 13 5 0 0 0 - - - 0;
#X obj 298 370 r xportreset;
#X msg 298 394 0;
#X msg 581 448 0;
#X obj 618 513 line~;
#X msg 617 486 \$1 100;
#X obj 584 384 sel 0 1;
#X obj 246 584 *~;
#X obj 516 471 switch~;
#X obj 516 442 tgl 15 0 empty empty empty 17 7 0 10 #fcfcfc #000000
#000000 0 1;
#X obj 514 403 f;
#X obj 508 326 t b f f;
#X msg 617 451 1;
#X obj 442 368 del 150;
#X connect 0 0 1 0;
#X connect 0 1 1 0;
#X connect 0 1 2 0;
#X connect 1 0 17 0;
#X connect 3 0 8 0;
#X connect 3 1 4 1;
#X connect 4 0 5 0;
#X connect 5 0 9 0;
#X connect 5 1 0 0;
#X connect 5 2 7 0;
#X connect 6 0 3 0;
#X connect 6 0 10 0;
#X connect 6 0 28 0;
#X connect 7 0 17 0;
#X connect 7 0 2 0;
#X connect 8 0 4 0;
#X connect 9 0 24 0;
#X connect 10 0 11 0;
#X connect 10 0 29 0;
#X connect 12 0 8 1;
#X connect 12 0 32 0;
#X connect 13 0 21 0;
#X connect 14 0 39 0;
#X connect 15 0 16 0;
#X connect 15 0 22 0;
#X connect 16 0 13 0;
#X connect 16 0 23 0;
#X connect 17 0 15 0;
#X connect 19 0 20 0;
#X connect 21 1 14 0;
#X connect 21 1 19 0;
#X connect 24 1 17 0;
#X connect 25 0 43 0;
#X connect 30 0 31 0;
#X connect 31 0 40 0;
#X connect 33 0 34 0;
#X connect 34 0 14 0;
#X connect 35 0 37 0;
#X connect 36 0 39 1;
#X connect 37 0 36 0;
#X connect 38 0 35 0;
#X connect 38 1 44 0;
#X connect 39 0 26 0;
#X connect 41 0 40 0;
#X connect 42 0 41 0;
#X connect 43 0 45 0;
#X connect 43 1 42 1;
#X connect 43 2 38 0;
#X connect 44 0 37 0;
#X connect 45 0 42 0;
#X restore -96 142 pd player;
#X floatatom 156 112 5 0 0 2 VAL pitch-raw\$1 - 8;
#X floatatom 183 112 5 0 0 2 AVG averagevalue\$1 - 8;
#X obj 177 128 vradio 12 1 0 3 pitch-proc\$2 empty empty 0 -8 0 10
#fcfcfc #000000 #000000 0;
#X obj 283 37 \$1;
#X obj 273 5 loadbang;
#X floatatom 283 61 5 0 0 0 - - - 0;
#X obj 256 7 bng 15 250 50 0 empty empty empty 17 7 0 10 #fcfcfc #000000
#000000;
#X msg 125 40 set \$1;
#X floatatom 231 112 3 0 0 2 MIDI - - 8;
#X obj 454 7 loadbang;
#X msg 454 31 0;
#X text 320 40 #1 = instr #;
#X obj 126 16 r pitch-proc\$1;
#X obj 454 55 s pitch-proc\$1;
#X obj 103 -17 r instruname\$1;
#X symbolatom 102 129 10 0 0 2 INSTRU - - 0;
#X obj 210 112 bng 14 250 50 0 empty notebang\$1 empty 17 7 0 10 #fcfcfc
#000000 #000000;
#X obj 213 129 cnv 15 10 10 empty empty Normal -20 5 0 9 #ffffff #000000
0;
#X obj 213 138 cnv 15 10 10 empty empty Moving\\\ Avg. -20 8 0 9 #ffffff
#000000 0;
#X obj 213 150 cnv 5 1 1 empty empty Quant.\\\ Avg. -20 8 0 9 #ffffff
#000000 0;
#X connect 6 0 8 0;
#X connect 7 0 6 0;
#X connect 8 0 11 0;
#X connect 9 0 6 0;
#X connect 10 0 5 0;
#X connect 12 0 13 0;
#X connect 13 0 16 0;
#X connect 15 0 10 0;
#X connect 17 0 18 0;
#X coords 0 -1 1 1 150 100 2 100 100;
