#N canvas 231 135 1459 896 12;
#X declare -path ABSTRACTIONS;
#N canvas 361 41 741 831 init 0;
#X msg 156 133 \; pd dsp 1;
#X obj 155 95 loadbang;
#X obj 459 77 s datacount0;
#X obj 423 3 r datacount1;
#X text 466 53 make sure metro array has correct X val;
#X obj 363 162 s metro-loc-bar;
#X msg 364 119 range 0 \$1;
#X text 431 142 playback cursors adjust to data length;
#X obj 109 200 declare -path ABSTRACTIONS;
#X connect 1 0 0 0;
#X connect 3 0 2 0;
#X connect 3 0 6 0;
#X connect 6 0 5 0;
#X restore 1395 61 pd init;
#X obj -20 108 AUTO 1 1 1;
#X obj -20 178 AUTO 2 2 1;
#X obj -20 248 AUTO 3 1 2;
#X obj -20 318 AUTO 4 2 2;
#X obj -20 388 AUTO 5 1 3;
#X obj -20 458 AUTO 6 2 3;
#X obj -20 528 AUTO 7 1 4;
#X obj -20 598 AUTO 8 2 4;
#X obj -20 668 AUTO 9 1 5;
#X obj -20 738 AUTO 10 2 5;
#N canvas 450 80 807 745 hanning 0;
#N canvas 0 0 450 300 (subpatch) 0;
#X array hanning 512 float 0;
#X coords 0 1 511 0 200 120 1;
#X restore 448 379 graph;
#X msg 326 393 0;
#X obj 220 442 osc~;
#X obj 220 394 samplerate~;
#X obj 220 465 *~ -0.5;
#X obj 220 488 +~ 0.5;
#X text 434 371 1;
#X text 427 489 0;
#X text 443 502 0;
#X obj 220 418 / 512;
#X obj 212 371 bng 15 250 50 0 empty empty empty 0 -6 0 8 #fcfcfc #000000
#000000;
#X obj 212 513 tabwrite~ hanning;
#X text 212 337 Hanning window:;
#X obj 142 315 loadbang;
#X connect 1 0 2 1;
#X connect 2 0 4 0;
#X connect 3 0 9 0;
#X connect 4 0 5 0;
#X connect 5 0 11 0;
#X connect 9 0 2 0;
#X connect 10 0 3 0;
#X connect 10 0 1 0;
#X connect 10 0 11 0;
#X connect 13 0 10 0;
#X restore 1395 83 pd hanning;
#N canvas 195 48 1245 817 man 0;
#X text 134 262 -use a "0" as a placeholder if no note;
#X text 116 226 2) \;;
#X text 115 243 3) return;
#X text 46 576 sliderrange0: metro automation lane range;
#X text 46 592 sliderrange1: zoom automation range;
#X text 46 608 sliderrange2: mode automation range;
#X text 43 541 (edit via text file or "Project Settings" / click qlist
object), f 64;
#X text 46 814 SEQUENCER SETUP;
#N canvas 691 474 450 300 map-stop 0;
#X obj 98 306 ctlout;
#X msg 153 273 1;
#X msg 120 273 1;
#X msg 88 244 127;
#X obj 119 184 t b b b;
#X obj 119 126 inlet;
#X connect 1 0 0 2;
#X connect 2 0 0 1;
#X connect 3 0 0 0;
#X connect 4 0 3 0;
#X connect 4 1 2 0;
#X connect 4 2 1 0;
#X connect 5 0 4 0;
#X restore 66 907 pd map-stop;
#X obj 66 876 bng 15 250 50 0 empty empty empty 17 7 0 10 #fcfcfc #000000
#000000;
#X obj 157 877 bng 15 250 50 0 empty empty empty 17 7 0 10 #fcfcfc
#000000 #000000;
#X obj 247 877 bng 15 250 50 0 empty empty empty 17 7 0 10 #fcfcfc
#000000 #000000;
#N canvas 691 474 450 300 map-play 0;
#X obj 98 306 ctlout;
#X msg 153 273 1;
#X msg 88 244 127;
#X obj 119 184 t b b b;
#X obj 119 126 inlet;
#X msg 120 273 2;
#X connect 1 0 0 2;
#X connect 2 0 0 0;
#X connect 3 0 2 0;
#X connect 3 1 5 0;
#X connect 3 2 1 0;
#X connect 4 0 3 0;
#X connect 5 0 0 1;
#X restore 157 908 pd map-play;
#N canvas 691 474 450 300 map-record 0;
#X obj 98 306 ctlout;
#X msg 153 273 1;
#X msg 88 244 127;
#X obj 119 184 t b b b;
#X obj 119 126 inlet;
#X msg 120 273 4;
#X connect 1 0 0 2;
#X connect 2 0 0 0;
#X connect 3 0 2 0;
#X connect 3 1 5 0;
#X connect 3 2 1 0;
#X connect 4 0 3 0;
#X connect 5 0 0 1;
#X restore 247 908 pd map-record;
#X text 47 837 PD will control a DAW via MIDI;
#X text 44 517 PROJECT SETTINGS;
#X text 47 945 Note data is sent via the MIDI channel indicated above
the instrument name;
#X text 154 -26 ====STEP 1: NOTE GENERATION====;
#X text 727 -31 ====STEP 2: AUDIO PROCESSING====;
#X text 704 114 DATA SOURCES;
#X text 701 343 Click 'AUDIO PROC.' to load the Audio Processing Data
;
#X text 703 437 Click "AUDIO WRITE' to write the audio to WAVs;
#X text 727 459 while playing composition;
#X text 722 364 (may take a while to load data);
#X text 704 0 OVERVIEW:;
#X text 720 21 Audio processing requires that the note data generated
in step, f 63;
#X text 722 38 1 has been recorded into WAV files (synthesized instrument
\,;
#X text 725 55 human player \, etc). This second step will apply spectral
processing, f 68;
#X text 730 74 and delay to the audio based on a second level of input
data., f 67;
#X text 42 5 OVERVIEW:;
#X text 58 26 Note generation will take an input data source for a
flexible number, f 72;
#X text 57 45 of instruments and allow the data to be shaped into a
composition., f 68;
#X text 56 69 It can be used in 1 of 3 ways (which are automated):
1) as is \, 2) scrolling average \, and 3) page average., f 68;
#X text 53 141 The instrument names are listed in POINTERS/INSTRUMENTS
and the data itself is listed in DATA/(Instrument name).txt., f 70
;
#X text 54 187 The Data Format:, f 50;
#X text 45 625 audio-rate-init-sign: 1=(รท) \, 0=(x) the audio data
rate in relation to the note data rate;
#X text 47 656 audio-rate-init: the factor to be (x) or (รท);
#X text 53 122 DATA SOURCES;
#X text 702 144 1 POINTERS/INSTRUMENTS-DATA2.txt - list the filenames
of the audio data sources. The data itself is listed in DATA/(Instrument
name).txt;
#X text 115 209 1) MIDI note or data value, f 41;
#X text 701 201 The Data Format: Same as note data, f 50;
#X text 704 246 CREATE AUDIO PROCESSING FUNCTIONS:;
#X text 717 271 Create a new PD object: AUDIODATA(unique #) as many
as needed, f 63;
#X text 890 309 THEN:;
#X text 704 397 Use the global transport controls to play back;
#X text 721 679 KNOWN ISSUES:;
#X text 733 697 audio waveform display only shows 6.5 minutes due to
32 bit limit;
#X text 47 1012 AUDIO OUTPUT CONTROLS:;
#X text 62 1033 P toggle box = processed audio on/off;
#X text 62 1051 S toggle box = synth notes audio on/off;
#X text 48 304 PROJECT SETUP:;
#X text 68 326 Create these objects for a functioning workflow:;
#X text 83 346 AUTO x y z;
#X text 163 346 >Automation lane: (x = unique # \, y = range type [0
= metro \, 1 = zoom amt \, 2 = mode] \, z = instrument # [from the
INSTRUMENTS.txt file]);
#X text 148 390 >Instrument note controls (x = instrument #);
#X text 146 408 >Audio output mixer for both synth and audio data processing
(x = instrument # / audio data #);
#X text 80 389 INSTRU x;
#X text 82 409 MIXER x;
#X text 79 449 AUDIODATA x;
#X text 166 451 >Audio Data Processor (optional) (x = audio data #)
;
#X text 45 711 bpm-init: quantize to this BPM / does not change tempo
/ metro changes tempo. Must appear after noteval section, f 79;
#X text 45 673 note-value-count: # of possible note lengths to quantize
to;
#X text 44 691 noteval: note length \, fractions of a whole note (0.25
= 1/4 note), f 68;
#X connect 9 0 8 0;
#X connect 10 0 12 0;
#X connect 11 0 13 0;
#X restore 1395 38 pd man;
#X obj -20 38 AUTO 0 0 0;
#X obj 730 668 INSTRU 5;
#X obj 730 528 INSTRU 4;
#X obj 730 388 INSTRU 3;
#X obj 730 248 INSTRU 2;
#X obj 730 108 INSTRU 1;
#N canvas 403 25 990 847 transport 0;
#X obj 250 120 bng 50 250 50 0 empty metro-location empty 17 7 0 10
#fcfcfc #000000 #000000;
#X obj 150 120 tgl 50 0 empty empty Ply/Paus 2 25 0 10 #fcfcfc #000000
#000000 0 1;
#X obj 100 120 bng 50 250 50 0 empty empty RESET 10 25 0 10 #fcfcfc
#000000 #000000;
#X obj 303 146 cnv 15 45 25 empty label #0 0 15 0 20 #e0e0e0 #404040
0;
#X obj 450 121 bng 50 250 50 0 savedata empty SAVE 3 25 0 18 #fcfcfc
#000000 #000000;
#X obj 500 121 bng 50 300 50 0 loaddata empty LOAD 3 25 1 17 #fcfcfc
#000000 #000000;
#X obj 342 190 bng 50 250 50 0 flb empty FLB 3 25 1 24 #fcfcfc #000000
#000000;
#X obj 150 190 tgl 50 0 audiowrite audiowrite-receive WRITE 3 25 0
15 #fcfcfc #000000 #000000 0 1;
#X obj 100 190 tgl 50 0 audioproc audioproc-receive PROC. 5 25 0 15
#fcfcfc #000000 #000000 0 1;
#X text 465 100 Automation;
#X floatatom 307 121 5 0 0 0 - - - 0;
#X obj 265 316 s metro-loc-change;
#X obj 203 190 vradio 25 1 0 2 audio-rate-sign audio-rate-sign-init
empty 0 -8 0 10 #fcfcfc #000000 #000000 0;
#X text 231 218 รท;
#X text 231 193 x;
#X floatatom 244 195 2 0 0 0 - audio-rate-init audio-rate-factor 36
;
#X text 207 171 RATE FACTOR;
#N canvas 782 508 450 300 settings 0;
#X obj 100 100 bng 50 250 50 0 empty empty Reload 4 25 0 12 #fcfcfc
#000000 #000000;
#N canvas 739 361 667 655 settings-load 0;
#X msg 262 134 rewind;
#X obj 234 26 loadbang;
#X obj 207 30 bng 15 250 50 0 empty empty empty 17 7 0 10 #fcfcfc #000000
#000000;
#X msg 300 179 read SETTINGS.txt;
#X obj 227 -4 r flb;
#X obj 337 4 inlet;
#X obj 238 229 qlist;
#X obj 154 262 s loadbang2;
#X text 243 262 some things only load after the settings;
#X obj 233 55 t b b b b;
#X connect 0 0 6 0;
#X connect 1 0 9 0;
#X connect 2 0 9 0;
#X connect 3 0 6 0;
#X connect 4 0 2 0;
#X connect 5 0 9 0;
#X connect 9 0 7 0;
#X connect 9 1 6 0;
#X connect 9 2 0 0;
#X connect 9 3 3 0;
#X restore 89 196 pd settings-load;
#N canvas 750 125 667 655 sys-settings-load 0;
#X msg 262 134 rewind;
#X obj 233 31 loadbang;
#X obj 207 30 bng 15 250 50 0 empty empty empty 17 7 0 10 #fcfcfc #000000
#000000;
#X obj 227 -4 r flb;
#X obj 337 4 inlet;
#X msg 300 179 read SETTINGS-SYSTEM.txt;
#X obj 232 251 qlist;
#X obj 233 55 t b b b b;
#X connect 0 0 6 0;
#X connect 1 0 7 0;
#X connect 2 0 7 0;
#X connect 3 0 2 0;
#X connect 4 0 7 0;
#X connect 5 0 6 0;
#X connect 7 1 6 0;
#X connect 7 2 0 0;
#X connect 7 3 5 0;
#X restore 220 196 pd sys-settings-load;
#X connect 0 0 1 0;
#X connect 0 0 2 0;
#X coords 0 -1 1 1 50 50 2 100 100;
#X restore 292 190 pd settings;
#N canvas 722 176 463 444 masteraudio 0;
#X obj 103 100 hsl 45 50 0 2 0 0 empty empty OUT\\\ dB -1 25 0 13 #fcfcfc
#000000 #000000 0 1;
#X obj 3 325 *~;
#X obj 41 326 *~;
#X obj 14 368 dac~;
#X obj 88 42 loadbang;
#X msg 88 66 1;
#X obj 150 100 tgl 50 0 empty empty ON 14 27 0 15 #fcfcfc #000000 #000000
0 1;
#X obj 83 236 f;
#X obj 166 166 sel 0 1;
#X msg 108 260 0;
#X obj 109 206 bng 15 250 50 0 empty empty empty 17 7 0 10 #fcfcfc
#000000 #000000;
#X obj -86 101 catch~ masterL;
#X obj -21 134 catch~ masterR;
#X obj 45 199 line;
#X msg 45 174 \$1 250;
#X connect 0 0 14 0;
#X connect 1 0 3 0;
#X connect 2 0 3 1;
#X connect 4 0 5 0;
#X connect 5 0 0 0;
#X connect 5 0 6 0;
#X connect 6 0 8 0;
#X connect 7 0 1 1;
#X connect 7 0 2 1;
#X connect 8 0 9 0;
#X connect 8 1 10 0;
#X connect 9 0 1 1;
#X connect 9 0 2 1;
#X connect 10 0 7 0;
#X connect 11 0 1 0;
#X connect 12 0 2 0;
#X connect 13 0 7 0;
#X connect 14 0 13 0;
#X coords 0 -1 1 1 100 50 2 100 100;
#X restore 450 190 pd masteraudio;
#X text 304 100 Scrub;
#X text 100 171 AUDIO FUNCTION;
#X text 289 171 SETTINGS;
#X obj 349 146 cnv 15 40 25 empty data1-length #721 0 15 0 15 #9f9f9f
#404040 0;
#X text 116 101 NOTE XPORT;
#X obj 204 120 cnv 15 45 50 empty bpm-formatted #45 0 28 0 20 #e0e0e0
#404040 0;
#X text 197 101 BPM QUANT.;
#X text 346 101 DATA 1 LENGTH, f 6;
#X obj 396 190 cnv 15 50 50 empty song-length2 #9.6 0 28 0 15 #e0e0e0
#404040 0;
#X obj 397 121 bng 50 250 50 0 get-song-length empty LENGTH 8 25 0
10 #fcfcfc #000000 #000000;
#X text 409 171 VVV;
#N canvas 297 307 525 565 playengine 0;
#X obj 124 50 inlet;
#N canvas 14 356 599 432 counter 0;
#X obj 36 20 r xportreset;
#X obj 142 -10 inlet;
#X obj 139 131 f;
#X obj 198 146 + 1;
#X obj 306 277 s metro-location;
#X obj 66 317 s metro-loc-bar;
#X msg 66 279 set \$1;
#X obj 298 80 r metro-loc-bar-s;
#X obj 298 108 int;
#N canvas 121 146 450 300 transportlabel 0;
#X floatatom 122 82 5 0 0 0 - - - 0;
#X obj 126 191 s label;
#X msg 123 156 label \$1;
#X msg 122 126 symbol #\$1;
#X obj 116 38 inlet;
#X connect 0 0 3 0;
#X connect 2 0 1 0;
#X connect 3 0 2 0;
#X connect 4 0 0 0;
#X restore 148 277 pd transportlabel;
#X obj 250 12 r metro-loc-change;
#X obj 250 36 int;
#X msg 67 75 0;
#X obj 139 168 t f f;
#X obj -30 0 loadbang;
#X connect 0 0 12 0;
#X connect 1 0 2 0;
#X connect 2 0 13 0;
#X connect 3 0 2 1;
#X connect 6 0 5 0;
#X connect 7 0 8 0;
#X connect 8 0 4 0;
#X connect 8 0 2 1;
#X connect 8 0 9 0;
#X connect 10 0 11 0;
#X connect 11 0 2 1;
#X connect 12 0 6 0;
#X connect 12 0 9 0;
#X connect 12 0 2 1;
#X connect 13 0 3 0;
#X connect 13 1 4 0;
#X connect 13 1 9 0;
#X connect 13 1 6 0;
#X connect 14 0 12 0;
#X restore 228 367 pd counter;
#X obj 227 177 s play-pause;
#N canvas 393 25 1027 830 metrobpm 0;
#N canvas 173 379 450 278 (subpatch) 0;
#X array quantize 8000 float 2;
#X coords 0 8000 8000 0 200 200 1 0 0;
#X restore 593 132 graph;
#X obj 33 -29 tabread quantize;
#X floatatom 33 1 5 0 0 0 - - - 0;
#N canvas 0 22 450 278 (subpatch) 0;
#X array ratio-array 14 float 3;
#A 0 0.0625 0.125 0.25 0.5 0.75 1 1.25 1.5 1.75 2 2.5 3 3.5 4;
#X coords 0 8 14 0 200 140 1 0 0;
#X restore 153 144 graph;
#N canvas 0 25 450 278 (subpatch) 0;
#X array value-array 14 float 2;
#X coords 0 5333.33 14 0 200 200 1 0 0;
#X restore 362 143 graph;
#N canvas 535 25 774 802 value-array 0;
#X obj 173 120 until;
#X obj 172 155 f;
#X obj 227 227 + 1;
#X msg 255 126 0;
#X obj 139 481 tabwrite value-array;
#X obj 26 268 tabread ratio-array;
#X obj 34 240 t f f, f 20;
#X obj 230 59 t b b f;
#X obj 228 -10 inlet;
#X obj 276 90 s metrobpm;
#X obj 80 377 r metrobpm;
#X obj 27 302 t b f;
#X msg 16 334 60000;
#X obj 61 409 /;
#X text 289 110 down to the left;
#X text 94 401 formula to convert note value and bpm to ms, f 21;
#X text 85 134 advances the tabread, f 11;
#X text 49 89 # of note values;
#X text 248 147 reset;
#X obj 53 524 r metrobpm;
#X msg 53 548 0;
#X obj 21 583 moses;
#X floatatom 95 551 5 0 0 0 - - - 0;
#X text 87 703 arrayname bounds x-range-from y-range-from x-range-to
y-range-to;
#X obj 51 379 *;
#X obj 117 610 pack f f;
#X msg 58 663 \; value-array bounds 0 \$1 \$2 0;
#X obj 162 -63 r note-value-count;
#X obj 170 580 r note-value-count;
#X obj 209 25 f;
#X obj 162 -18 t b f;
#X obj 177 94 f;
#X floatatom 16 201 5 0 0 0 - - - 0;
#X floatatom 95 -60 5 0 0 0 - - - 0;
#X obj 328 -6 sel 0;
#X obj 328 18 print error: bpm-init should preceed note-value-count
in settings.txt;
#X obj 67 451 t b f, f 10;
#X obj 297 446 sel;
#X obj 315 377 r note-value-count;
#X obj 316 410 - 1;
#X obj 297 536 &&;
#X obj 305 501 tgl 15 0 empty empty empty 17 7 0 10 #fcfcfc #000000
#000000 0 1;
#X msg 295 472 1;
#X msg 331 472 0;
#X obj 321 573 sel 1;
#X obj 406 618 s quant-array-start;
#X obj 149 189 t f f f;
#X msg 140 507 1;
#X connect 0 0 1 0;
#X connect 1 0 46 0;
#X connect 2 0 1 1;
#X connect 3 0 1 1;
#X connect 5 0 11 0;
#X connect 6 0 5 0;
#X connect 6 1 4 1;
#X connect 7 0 31 0;
#X connect 7 1 3 0;
#X connect 7 2 9 0;
#X connect 8 0 29 1;
#X connect 10 0 13 1;
#X connect 11 0 12 0;
#X connect 11 1 24 1;
#X connect 12 0 24 0;
#X connect 13 0 21 0;
#X connect 13 0 36 0;
#X connect 19 0 20 0;
#X connect 20 0 21 1;
#X connect 21 1 22 0;
#X connect 21 1 25 0;
#X connect 22 0 21 1;
#X connect 24 0 13 0;
#X connect 25 0 26 0;
#X connect 27 0 30 0;
#X connect 28 0 25 1;
#X connect 29 0 7 0;
#X connect 29 0 34 0;
#X connect 30 0 29 0;
#X connect 30 1 31 1;
#X connect 31 0 0 0;
#X connect 32 0 6 0;
#X connect 33 0 30 0;
#X connect 34 0 35 0;
#X connect 36 0 47 0;
#X connect 36 1 4 0;
#X connect 37 0 42 0;
#X connect 37 1 43 0;
#X connect 38 0 39 0;
#X connect 39 0 37 1;
#X connect 40 0 44 0;
#X connect 41 0 40 1;
#X connect 42 0 41 0;
#X connect 43 0 41 0;
#X connect 44 0 45 0;
#X connect 46 0 2 0;
#X connect 46 1 6 0;
#X connect 46 2 37 0;
#X connect 47 0 40 0;
#X restore 376 96 pd value-array;
#X floatatom 495 -45 5 0 0 0 - - - 0;
#N canvas 578 25 862 817 quant-array 0;
#X obj 196 25 inlet;
#X obj 145 168 until;
#X obj 145 192 f;
#X obj 176 221 + 1;
#X obj 178 80 t b b;
#X obj 7 426 tabread value-array;
#X obj 52 241 f;
#X obj 79 277 + 1;
#X msg 82 203 0, f 2;
#X obj 166 653 moses;
#X obj 44 368 f;
#X obj 84 329 t b f;
#X obj 13 541 -;
#X obj 15 592 +;
#X obj 44 458 tabread value-array;
#X obj 13 565 / 2;
#X floatatom 20 622 5 0 0 0 - - - 0;
#X floatatom -38 483 5 0 0 0 - - - 0;
#X obj 31 498 t f f;
#X obj 264 740 s nextratio;
#X obj 18 166 r nextratio;
#X obj 19 813 tabwrite quantize;
#X floatatom 170 575 5 0 0 0 - - - 0;
#X obj 19 769 f;
#X obj 203 691 t b b f b;
#X obj 116 689 t b f;
#X obj 233 480 tabread value-array;
#X msg 233 450 0;
#X text 224 57 BPM;
#X text 187 119 milliseconds;
#X text 225 169 milliseconds;
#X text 254 502 minimum milliseconds value?;
#X floatatom 251 595 5 0 0 0 - - - 0;
#X text -30 842 below value-array range;
#X obj 231 667 bng 15 250 50 0 empty empty empty 17 7 0 10 #fcfcfc
#000000 #000000;
#X text -26 123 EVERY POSSIBLE MS VALUE;
#X text 267 763 up to the left;
#X obj 275 538 s value-array-min;
#X obj -117 709 r value-array-min;
#X obj 163 810 tabwrite quantize;
#X obj 164 764 f;
#X text 355 693 once the until reaches the quantized value the moses
gets updated to the next quantized value, f 28;
#X msg 195 169 0;
#X msg 145 121 8000;
#X obj 181 51 f;
#X obj 183 -13 r quant-array-start;
#X floatatom 280 56 5 0 0 0 - - - 0;
#X connect 0 0 44 1;
#X connect 0 0 46 0;
#X connect 1 0 2 0;
#X connect 2 0 3 0;
#X connect 2 0 22 0;
#X connect 3 0 2 1;
#X connect 4 0 43 0;
#X connect 4 1 42 0;
#X connect 4 1 8 0;
#X connect 4 1 27 0;
#X connect 5 0 17 0;
#X connect 5 0 12 0;
#X connect 6 0 7 0;
#X connect 6 0 11 0;
#X connect 7 0 6 1;
#X connect 7 0 10 1;
#X connect 8 0 6 1;
#X connect 9 0 25 0;
#X connect 9 1 24 0;
#X connect 9 1 34 0;
#X connect 10 0 5 0;
#X connect 11 0 10 0;
#X connect 11 1 14 0;
#X connect 12 0 15 0;
#X connect 13 0 16 0;
#X connect 14 0 18 0;
#X connect 15 0 13 0;
#X connect 16 0 9 1;
#X connect 16 0 23 1;
#X connect 16 0 40 1;
#X connect 18 0 12 1;
#X connect 18 1 13 1;
#X connect 20 0 6 0;
#X connect 22 0 9 0;
#X connect 23 0 21 0;
#X connect 24 1 40 0;
#X connect 24 2 39 1;
#X connect 24 3 19 0;
#X connect 25 0 23 0;
#X connect 25 1 21 1;
#X connect 26 0 9 1;
#X connect 26 0 32 0;
#X connect 26 0 37 0;
#X connect 27 0 26 0;
#X connect 38 0 23 0;
#X connect 40 0 39 0;
#X connect 42 0 2 1;
#X connect 43 0 1 0;
#X connect 44 0 4 0;
#X connect 45 0 44 0;
#X restore 596 85 pd quant-array;
#X obj 32 41 outlet;
#X obj 493 -9 t f f f;
#X obj 36 -116 r metrospeed;
#X floatatom 58 -70 5 0 0 0 - - - 0;
#X obj 405 536 tabread value-array;
#X floatatom 406 500 5 0 0 0 - - - 0;
#X floatatom 405 572 10 0 0 0 - - - 0;
#X obj 496 -79 r bpm-init;
#N canvas 817 25 567 738 get-song-length 0;
#X obj 268 252 tabread quantize;
#X obj 231 67 f;
#N canvas 482 139 450 300 counter 0;
#X obj 101 40 inlet;
#X obj 81 280 outlet;
#X obj 76 122 until;
#X obj 76 177 f;
#X obj 94 246 + 1;
#X msg 94 146 0;
#X obj 101 82 t f b;
#X obj 48 208 t f f;
#X connect 0 0 6 0;
#X connect 2 0 3 0;
#X connect 3 0 7 0;
#X connect 4 0 3 1;
#X connect 5 0 3 1;
#X connect 6 0 2 0;
#X connect 6 1 5 0;
#X connect 7 0 4 0;
#X connect 7 1 1 0;
#X restore 233 122 pd counter;
#X floatatom 176 46 5 0 0 0 - - - 0;
#X obj 248 9 r datacount0;
#X obj 267 210 tabread auto0;
#X obj 292 332 f;
#X obj 271 288 +;
#X msg 396 282 0;
#X obj 164 273 sel;
#X obj 234 165 t f f;
#X obj 274 376 f;
#X obj 170 314 bng 15 250 50 0 empty empty empty 17 7 0 10 #fcfcfc
#000000 #000000;
#X floatatom 274 400 7 0 0 0 - - - 0;
#X obj 228 -45 t b b, f 23;
#X obj 228 -74 bng 15 250 50 0 empty empty empty 17 7 0 10 #fcfcfc
#000000 #000000;
#X obj 176 103 - 1;
#X obj 274 425 / 60000;
#X floatatom 274 453 5 0 0 0 - - - 0;
#X obj 274 555 s song-length;
#X obj 232 -115 r get-song-length;
#X obj 274 480 * 10;
#X obj 274 504 int;
#X obj 274 528 / 10;
#X text 303 504 round to 1/10 decimil;
#X text 330 399 total ms;
#X text 315 455 minutes;
#X text 369 211 read thru metro array;
#X text 387 252 quantize values;
#X text 341 11 # of values in data 1;
#X text 45 273 bang once all values are tabulated, f 15;
#X floatatom 212 243 5 0 0 0 - - - 0;
#X floatatom 289 164 5 0 0 0 - - - 0;
#X floatatom 212 283 5 0 0 0 - - - 0;
#X floatatom 352 362 10 0 0 0 - - - 0;
#X connect 0 0 7 0;
#X connect 0 0 33 0;
#X connect 1 0 2 0;
#X connect 2 0 10 0;
#X connect 3 0 16 0;
#X connect 4 0 1 1;
#X connect 4 0 3 0;
#X connect 5 0 0 0;
#X connect 5 0 31 0;
#X connect 6 0 7 1;
#X connect 6 0 11 1;
#X connect 6 0 34 0;
#X connect 7 0 6 0;
#X connect 8 0 7 1;
#X connect 8 0 6 1;
#X connect 8 0 11 1;
#X connect 9 0 12 0;
#X connect 10 0 9 0;
#X connect 10 1 5 0;
#X connect 11 0 13 0;
#X connect 12 0 11 0;
#X connect 13 0 17 0;
#X connect 14 0 1 0;
#X connect 14 1 8 0;
#X connect 15 0 14 0;
#X connect 16 0 9 1;
#X connect 17 0 18 0;
#X connect 18 0 21 0;
#X connect 20 0 15 0;
#X connect 21 0 22 0;
#X connect 22 0 23 0;
#X connect 23 0 19 0;
#X connect 32 0 5 0;
#X restore 854 -88 pd get-song-length;
#X text 45 -139 QUANTIZE;
#X text 354 348 CONVERT EACH NOTE VALUE TO MS;
#X text 596 341 TAKE ARRAY MS VALUE AND ROUND TO NEAREST QUANTIZED
VALUE, f 28;
#X text 847 -120 CALCULATE SONG LENGTH;
#X text 198 78 ARRAY SETUP;
#X floatatom 621 507 5 0 0 0 - - - 0;
#X floatatom 620 579 10 0 0 0 - - - 0;
#X obj 620 543 tabread quantize;
#X text 153 296 fractions of a whole note;
#X text 135 318 0.25 = quarter note;
#N canvas 646 136 856 650 load-ratio-array 0;
#X obj 323 320 array size ratio-array;
#X obj 352 284 array size value-array;
#X obj 258 152 r note-value-count;
#X obj 125 163 r noteval;
#X obj 143 283 f;
#X msg 177 244 0;
#X obj 143 348 + 1;
#X obj 143 315 t f f;
#X obj 126 218 t f b;
#X obj 123 407 tabwrite ratio-array;
#X text -9 151 quantized note values from settings file, f 17;
#X text 397 151 number of quantized values in the settings file, f
15;
#X connect 2 0 5 0;
#X connect 2 0 1 0;
#X connect 2 0 0 0;
#X connect 3 0 8 0;
#X connect 4 0 7 0;
#X connect 5 0 4 1;
#X connect 6 0 4 1;
#X connect 7 0 6 0;
#X connect 7 1 9 1;
#X connect 8 0 9 0;
#X connect 8 1 4 0;
#X restore 177 103 pd load-ratio-array;
#X connect 1 0 2 0;
#X connect 2 0 8 0;
#X connect 6 0 9 0;
#X connect 9 1 7 0;
#X connect 9 2 5 0;
#X connect 10 0 1 0;
#X connect 11 0 1 0;
#X connect 12 0 14 0;
#X connect 13 0 12 0;
#X connect 15 0 6 0;
#X connect 22 0 24 0;
#X connect 24 0 23 0;
#X restore 222 231 pd metrobpm;
#X obj 121 103 t f f;
#X text 224 210 QUANTIZE;
#X obj 227 328 delay;
#X obj 223 293 t b f;
#X obj 58 214 sel 1;
#X msg 135 237 stop;
#X obj 115 202 r xportreset;
#X obj 299 278 r xportreset;
#X msg 299 302 0;
#N canvas 960 236 456 501 play-pause-midi 0;
#X obj 168 72 inlet;
#X obj 173 117 sel 1;
#X obj 151 270 ctlout;
#X msg 189 246 1;
#X msg 170 220 2;
#X msg 150 189 127;
#X obj 255 266 ctlout;
#X msg 310 233 1;
#X msg 277 233 1;
#X msg 245 204 127;
#X obj 25 342 ctlout;
#X msg 67 313 1;
#X msg 28 256 127;
#X msg 48 288 4;
#X obj 49 173 spigot;
#X obj 253 162 t b b b;
#X obj 160 154 t b b b;
#X obj 49 207 t b b b;
#X connect 0 0 1 0;
#X connect 1 0 16 0;
#X connect 1 1 15 0;
#X connect 3 0 2 2;
#X connect 4 0 2 1;
#X connect 5 0 2 0;
#X connect 7 0 6 2;
#X connect 8 0 6 1;
#X connect 9 0 6 0;
#X connect 11 0 10 2;
#X connect 12 0 10 0;
#X connect 13 0 10 1;
#X connect 14 0 17 0;
#X connect 15 0 9 0;
#X connect 15 1 8 0;
#X connect 15 2 7 0;
#X connect 16 0 5 0;
#X connect 16 1 4 0;
#X connect 16 2 3 0;
#X connect 17 0 12 0;
#X connect 17 1 13 0;
#X connect 17 2 11 0;
#X restore 202 106 pd play-pause-midi;
#X connect 0 0 4 0;
#X connect 0 0 13 0;
#X connect 3 0 7 0;
#X connect 4 0 8 0;
#X connect 4 1 2 0;
#X connect 6 0 1 0;
#X connect 7 0 6 0;
#X connect 7 1 6 1;
#X connect 8 0 6 0;
#X connect 8 1 9 0;
#X connect 9 0 6 0;
#X connect 10 0 9 0;
#X connect 11 0 12 0;
#X connect 12 0 6 1;
#X restore 148 332 pd playengine;
#N canvas 654 314 487 491 reset 0;
#X obj 93 61 inlet;
#X obj 98 306 ctlout;
#X msg 153 273 1;
#X msg 120 273 1;
#X msg 88 244 127;
#X obj 119 184 t b b b;
#X obj 91 97 t b b;
#X obj 58 142 del 250;
#X obj 156 101 s xportreset;
#X connect 0 0 6 0;
#X connect 0 0 8 0;
#X connect 2 0 1 2;
#X connect 3 0 1 1;
#X connect 4 0 1 0;
#X connect 5 0 4 0;
#X connect 5 1 3 0;
#X connect 5 2 2 0;
#X connect 6 0 7 0;
#X connect 6 1 5 0;
#X connect 7 0 5 0;
#X restore 9 183 pd reset;
#N canvas 295 320 450 300 stop 0;
#X obj 91 -71 r metro-location;
#X obj 123 -38 r datacount0;
#X obj 102 36 moses;
#X msg 136 65 0;
#X obj 158 13 r xportreset;
#X obj 114 140 outlet;
#X connect 0 0 2 0;
#X connect 1 0 2 1;
#X connect 2 1 3 0;
#X connect 3 0 5 0;
#X connect 4 0 3 0;
#X restore 139 29 pd stop;
#N canvas 324 349 450 300 label-maker 0;
#X obj 46 27 r bpm-init;
#X msg 48 52 label #\$1;
#X obj 48 79 s bpm-formatted;
#X obj 203 27 r song-length;
#X obj 205 80 s song-length2;
#X msg 203 53 label #\$1;
#X obj 331 22 r datacount1;
#X obj 329 84 s data1-length;
#X msg 329 53 label #\$1;
#X connect 0 0 1 0;
#X connect 1 0 2 0;
#X connect 3 0 5 0;
#X connect 5 0 4 0;
#X connect 6 0 8 0;
#X connect 8 0 7 0;
#X restore 577 23 pd label-maker;
#X obj 448 278 t b b;
#X obj 480 319 s flb;
#X obj 447 348 s flb2;
#X connect 1 0 30 0;
#X connect 2 0 31 0;
#X connect 6 0 34 0;
#X connect 10 0 11 0;
#X connect 32 0 1 0;
#X connect 34 0 36 0;
#X connect 34 1 35 0;
#X coords 0 -1 1 1 450 140 2 100 100;
#X restore 936 37 pd transport;
#X obj 936 207 AUDIODATA 1;
#X obj 936 372 AUDIODATA 2;
#X obj 936 537 AUDIODATA 3;
#X obj 1160 207 AUDIODATA 4;
#X obj 1160 372 AUDIODATA 5;
#X obj 1160 537 AUDIODATA 6;
#X obj 730 768 MIXER 5;
#X obj 730 628 MIXER 4;
#X obj 730 488 MIXER 3;
#X obj 730 348 MIXER 2;
#X obj 730 208 MIXER 1;
#X obj 734 38 cnv 15 150 60 empty empty DataBuMp 8 20 0 25 #e0e0e0
#404040 0;
#X obj 824 82 cnv 15 50 20 empty empty v0.1 10 12 0 15 #e0e0e0 #404040
0;
#X obj 889 28 cnv 15 15 780 empty empty empty 20 12 0 14 #dfdfdf #404040
0;
#X obj 914 196 cnv 15 15 510 empty empty empty 20 12 0 14 #c6feff #404040
0;
#X obj 914 187 cnv 15 475 15 empty empty empty 20 12 0 14 #c6feff #404040
0;
#X obj -21 16 cnv 15 925 15 empty empty empty 20 12 0 14 #dfdfdf #404040
0;
#X obj 914 16 cnv 15 475 15 empty empty empty 20 12 0 14 #ffc7c6 #404040
0;
#X obj 914 16 cnv 15 15 161 empty empty empty 20 12 0 14 #ffc7c6 #404040
0;
